  0
SECTION
  2
HEADER
  9
$ACADVER
  1
AC1024
  9
$ACADMAINTVER
 70
6
  9
$DWGCODEPAGE
  3
ANSI_1252
  9
$LASTSAVEDBY
  1
ezdxf
  9
$INSBASE
 10
0.0
 20
0.0
 30
0.0
  9
$EXTMIN
 10
-100
 20
-100
 30
-100
  9
$EXTMAX
 10
100
 20
100
 30
100
  9
$LIMMIN
 10
0.0
 20
0.0
  9
$LIMMAX
 10
420.0
 20
297.0
  9
$ORTHOMODE
 70
0
  9
$REGENMODE
 70
1
  9
$FILLMODE
 70
1
  9
$QTEXTMODE
 70
0
  9
$MIRRTEXT
 70
1
  9
$LTSCALE
 40
1.0
  9
$ATTMODE
 70
1
  9
$TEXTSIZE
 40
2.5
  9
$TRACEWID
 40
1.0
  9
$TEXTSTYLE
  7
OpenSans
  9
$CLAYER
  8
0
  9
$CELTYPE
  6
ByLayer
  9
$CECOLOR
 62
256
  9
$CELTSCALE
 40
1.0
  9
$DISPSILH
 70
0
  9
$DIMSCALE
 40
1.0
  9
$DIMASZ
 40
0.175
  9
$DIMEXO
 40
0.125
  9
$DIMDLI
 40
3.75
  9
$DIMRND
 40
0.0
  9
$DIMDLE
 40
0.0
  9
$DIMEXE
 40
0.375
  9
$DIMTP
 40
0.0
  9
$DIMTM
 40
0.0
  9
$DIMTXT
 40
0.25
  9
$DIMCEN
 40
2.5
  9
$DIMTSZ
 40
0.0
  9
$DIMTOL
 70
0
  9
$DIMLIM
 70
0
  9
$DIMTIH
 70
0
  9
$DIMTOH
 70
0
  9
$DIMSE1
 70
0
  9
$DIMSE2
 70
0
  9
$DIMTAD
 70
1
  9
$DIMZIN
 70
8
  9
$DIMBLK
  1
ARCHTICK
  9
$DIMASO
 70
1
  9
$DIMSHO
 70
1
  9
$DIMPOST
  1

  9
$DIMAPOST
  1

  9
$DIMALT
 70
0
  9
$DIMALTD
 70
3
  9
$DIMALTF
 40
0.03937007874
  9
$DIMLFAC
 40
100.0
  9
$DIMTOFL
 70
1
  9
$DIMTVP
 40
0.0
  9
$DIMTIX
 70
0
  9
$DIMSOXD
 70
0
  9
$DIMSAH
 70
0
  9
$DIMBLK1
  1

  9
$DIMBLK2
  1

  9
$DIMSTYLE
  2
EZDXF
  9
$DIMCLRD
 70
0
  9
$DIMCLRE
 70
0
  9
$DIMCLRT
 70
0
  9
$DIMTFAC
 40
1.0
  9
$DIMGAP
 40
0.1
  9
$DIMJUST
 70
0
  9
$DIMSD1
 70
0
  9
$DIMSD2
 70
0
  9
$DIMTOLJ
 70
0
  9
$DIMTZIN
 70
8
  9
$DIMALTZ
 70
0
  9
$DIMALTTZ
 70
0
  9
$DIMUPT
 70
1
  9
$DIMDEC
 70
2
  9
$DIMTDEC
 70
2
  9
$DIMALTU
 70
2
  9
$DIMALTTD
 70
3
  9
$DIMTXSTY
  7
OpenSansCondensed-Light
  9
$DIMAUNIT
 70
0
  9
$DIMADEC
 70
0
  9
$DIMALTRND
 40
0.0
  9
$DIMAZIN
 70
0
  9
$DIMDSEP
 70
46
  9
$DIMATFIT
 70
3
  9
$DIMFRAC
 70
0
  9
$DIMLDRBLK
  1

  9
$DIMLUNIT
 70
2
  9
$DIMLWD
 70
-2
  9
$DIMLWE
 70
-2
  9
$DIMTMOVE
 70
2
  9
$DIMFXL
 40
1.0
  9
$DIMFXLON
 70
0
  9
$DIMJOGANG
 40
0.785398163397
  9
$DIMTFILL
 70
0
  9
$DIMTFILLCLR
 70
0
  9
$DIMARCSYM
 70
0
  9
$DIMLTYPE
  6

  9
$DIMLTEX1
  6

  9
$DIMLTEX2
  6

  9
$DIMTXTDIRECTION
 70
0
  9
$LUNITS
 70
2
  9
$LUPREC
 70
4
  9
$SKETCHINC
 40
1.0
  9
$FILLETRAD
 40
10.0
  9
$AUNITS
 70
0
  9
$AUPREC
 70
2
  9
$MENU
  1
.
  9
$ELEVATION
 40
0.0
  9
$PELEVATION
 40
0.0
  9
$THICKNESS
 40
0.0
  9
$LIMCHECK
 70
0
  9
$CHAMFERA
 40
0.0
  9
$CHAMFERB
 40
0.0
  9
$CHAMFERC
 40
0.0
  9
$CHAMFERD
 40
0.0
  9
$SKPOLY
 70
0
  9
$TDCREATE
 40
2459197.965625
  9
$TDUCREATE
 40
2458532.153996898
  9
$TDUPDATE
 40
2459197.965636574
  9
$TDUUPDATE
 40
2458532.1544311
  9
$TDINDWG
 40
0.0
  9
$TDUSRTIMER
 40
0.0
  9
$USRTIMER
 70
1
  9
$ANGBASE
 50
0.0
  9
$ANGDIR
 70
0
  9
$PDMODE
 70
0
  9
$PDSIZE
 40
0.0
  9
$PLINEWID
 40
0.0
  9
$SPLFRAME
 70
0
  9
$SPLINETYPE
 70
6
  9
$SPLINESEGS
 70
8
  9
$HANDSEED
  5
246
  9
$SURFTAB1
 70
6
  9
$SURFTAB2
 70
6
  9
$SURFTYPE
 70
6
  9
$SURFU
 70
6
  9
$SURFV
 70
6
  9
$UCSBASE
  2

  9
$UCSNAME
  2

  9
$UCSORG
 10
0.0
 20
0.0
 30
0.0
  9
$UCSXDIR
 10
1.0
 20
0.0
 30
0.0
  9
$UCSYDIR
 10
0.0
 20
1.0
 30
0.0
  9
$UCSORTHOREF
  2

  9
$UCSORTHOVIEW
 70
0
  9
$UCSORGTOP
 10
0.0
 20
0.0
 30
0.0
  9
$UCSORGBOTTOM
 10
0.0
 20
0.0
 30
0.0
  9
$UCSORGLEFT
 10
0.0
 20
0.0
 30
0.0
  9
$UCSORGRIGHT
 10
0.0
 20
0.0
 30
0.0
  9
$UCSORGFRONT
 10
0.0
 20
0.0
 30
0.0
  9
$UCSORGBACK
 10
0.0
 20
0.0
 30
0.0
  9
$PUCSBASE
  2

  9
$PUCSNAME
  2

  9
$PUCSORG
 10
0.0
 20
0.0
 30
0.0
  9
$PUCSXDIR
 10
1.0
 20
0.0
 30
0.0
  9
$PUCSYDIR
 10
0.0
 20
1.0
 30
0.0
  9
$PUCSORTHOREF
  2

  9
$PUCSORTHOVIEW
 70
0
  9
$PUCSORGTOP
 10
0.0
 20
0.0
 30
0.0
  9
$PUCSORGBOTTOM
 10
0.0
 20
0.0
 30
0.0
  9
$PUCSORGLEFT
 10
0.0
 20
0.0
 30
0.0
  9
$PUCSORGRIGHT
 10
0.0
 20
0.0
 30
0.0
  9
$PUCSORGFRONT
 10
0.0
 20
0.0
 30
0.0
  9
$PUCSORGBACK
 10
0.0
 20
0.0
 30
0.0
  9
$USERI1
 70
0
  9
$USERI2
 70
0
  9
$USERI3
 70
0
  9
$USERI4
 70
0
  9
$USERI5
 70
0
  9
$USERR1
 40
0.0
  9
$USERR2
 40
0.0
  9
$USERR3
 40
0.0
  9
$USERR4
 40
0.0
  9
$USERR5
 40
0.0
  9
$WORLDVIEW
 70
1
  9
$SHADEDGE
 70
3
  9
$SHADEDIF
 70
70
  9
$TILEMODE
 70
1
  9
$MAXACTVP
 70
64
  9
$PINSBASE
 10
0.0
 20
0.0
 30
0.0
  9
$PLIMCHECK
 70
0
  9
$PEXTMIN
 10
1e+20
 20
1e+20
 30
1e+20
  9
$PEXTMAX
 10
-1e+20
 20
-1e+20
 30
-1e+20
  9
$PLIMMIN
 10
0.0
 20
0.0
  9
$PLIMMAX
 10
420.0
 20
297.0
  9
$UNITMODE
 70
0
  9
$VISRETAIN
 70
1
  9
$PLINEGEN
 70
0
  9
$PSLTSCALE
 70
1
  9
$TREEDEPTH
 70
3020
  9
$CMLSTYLE
  2
Standard
  9
$CMLJUST
 70
0
  9
$CMLSCALE
 40
20.0
  9
$PROXYGRAPHICS
 70
1
  9
$MEASUREMENT
 70
1
  9
$CELWEIGHT
370
-1
  9
$ENDCAPS
280
0
  9
$JOINSTYLE
280
0
  9
$LWDISPLAY
290
0
  9
$INSUNITS
 70
4
  9
$HYPERLINKBASE
  1

  9
$STYLESHEET
  1

  9
$XEDIT
290
1
  9
$CEPSNTYPE
380
0
  9
$PSTYLEMODE
290
1
  9
$FINGERPRINTGUID
  2
73173418-3DDB-11EB-9529-A683E7A8AA1A
  9
$VERSIONGUID
  2
73F3996C-3DDB-11EB-9529-A683E7A8AA1A
  9
$EXTNAMES
290
1
  9
$PSVPSCALE
 40
0.0
  9
$OLESTARTUP
290
0
  9
$SORTENTS
280
127
  9
$INDEXCTL
280
0
  9
$HIDETEXT
280
1
  9
$XCLIPFRAME
280
2
  9
$HALOGAP
280
0
  9
$OBSCOLOR
 70
257
  9
$OBSLTYPE
280
0
  9
$INTERSECTIONDISPLAY
280
0
  9
$INTERSECTIONCOLOR
 70
257
  9
$DIMASSOC
280
2
  9
$PROJECTNAME
  1

  9
$CAMERADISPLAY
290
0
  9
$LENSLENGTH
 40
50.0
  9
$CAMERAHEIGHT
 40
0.0
  9
$STEPSPERSEC
 40
24.0
  9
$STEPSIZE
 40
100.0
  9
$3DDWFPREC
 40
2.0
  9
$PSOLWIDTH
 40
0.005
  9
$PSOLHEIGHT
 40
0.08
  9
$LOFTANG1
 40
1.570796326795
  9
$LOFTANG2
 40
1.570796326795
  9
$LOFTMAG1
 40
0.0
  9
$LOFTMAG2
 40
0.0
  9
$LOFTPARAM
 70
7
  9
$LOFTNORMALS
280
1
  9
$LATITUDE
 40
37.795
  9
$LONGITUDE
 40
-122.394
  9
$NORTHDIRECTION
 40
0.0
  9
$TIMEZONE
 70
-8000
  9
$LIGHTGLYPHDISPLAY
280
1
  9
$TILEMODELIGHTSYNCH
280
1
  9
$CMATERIAL
347
20
  9
$SOLIDHIST
280
0
  9
$SHOWHIST
280
1
  9
$DWFFRAME
280
2
  9
$DGNFRAME
280
2
  9
$REALWORLDSCALE
290
1
  9
$INTERFERECOLOR
 62
256
  9
$CSHADOW
280
0
  9
$SHADOWPLANELOCATION
 40
0.0
  0
ENDSEC
  0
SECTION
  2
CLASSES
  0
CLASS
  1
ACDBDICTIONARYWDFLT
  2
AcDbDictionaryWithDefault
  3
ObjectDBX Classes
 90
0
 91
0
280
0
281
0
  0
CLASS
  1
SUN
  2
AcDbSun
  3
SCENEOE
 90
1153
 91
0
280
0
281
0
  0
CLASS
  1
VISUALSTYLE
  2
AcDbVisualStyle
  3
ObjectDBX Classes
 90
4095
 91
0
280
0
281
0
  0
CLASS
  1
MATERIAL
  2
AcDbMaterial
  3
ObjectDBX Classes
 90
1153
 91
0
280
0
281
0
  0
CLASS
  1
SCALE
  2
AcDbScale
  3
ObjectDBX Classes
 90
1153
 91
0
280
0
281
0
  0
CLASS
  1
TABLESTYLE
  2
AcDbTableStyle
  3
ObjectDBX Classes
 90
4095
 91
0
280
0
281
0
  0
CLASS
  1
MLEADERSTYLE
  2
AcDbMLeaderStyle
  3
ACDB_MLEADERSTYLE_CLASS
 90
4095
 91
0
280
0
281
0
  0
CLASS
  1
DICTIONARYVAR
  2
AcDbDictionaryVar
  3
ObjectDBX Classes
 90
0
 91
0
280
0
281
0
  0
CLASS
  1
CELLSTYLEMAP
  2
AcDbCellStyleMap
  3
ObjectDBX Classes
 90
1152
 91
0
280
0
281
0
  0
CLASS
  1
MENTALRAYRENDERSETTINGS
  2
AcDbMentalRayRenderSettings
  3
SCENEOE
 90
1024
 91
0
280
0
281
0
  0
CLASS
  1
ACDBDETAILVIEWSTYLE
  2
AcDbDetailViewStyle
  3
ObjectDBX Classes
 90
1025
 91
0
280
0
281
0
  0
CLASS
  1
ACDBSECTIONVIEWSTYLE
  2
AcDbSectionViewStyle
  3
ObjectDBX Classes
 90
1025
 91
0
280
0
281
0
  0
CLASS
  1
RASTERVARIABLES
  2
AcDbRasterVariables
  3
ISM
 90
0
 91
0
280
0
281
0
  0
CLASS
  1
LAYOUT
  2
AcDbLayout
  3
ObjectDBX Classes
 90
0
 91
0
280
0
281
0
  0
CLASS
  1
ACDBPLACEHOLDER
  2
AcDbPlaceHolder
  3
ObjectDBX Classes
 90
0
 91
0
280
0
281
0
  0
ENDSEC
  0
SECTION
  2
TABLES
  0
TABLE
  2
VPORT
  5
8
330
0
100
AcDbSymbolTable
 70
1
  0
VPORT
  5
23
330
8
100
AcDbSymbolTableRecord
100
AcDbViewportTableRecord
  2
*Active
 70
0
 10
0.0
 20
0.0
 11
1.0
 21
1.0
 12
70.0
 22
50.0
 13
0.0
 23
0.0
 14
0.5
 24
0.5
 15
0.5
 25
0.5
 16
0.0
 26
0.0
 36
1.0
 17
0.0
 27
0.0
 37
0.0
 40
1.0
 41
1.34
 42
50.0
 43
0.0
 44
0.0
 50
0.0
 51
0.0
 71
0
 72
1000
 73
1
 74
3
 75
0
 76
0
 77
0
 78
0
281
0
 65
0
146
0.0
  0
ENDTAB
  0
TABLE
  2
LTYPE
  5
2
330
0
100
AcDbSymbolTable
 70
21
  0
LTYPE
  5
24
330
2
100
AcDbSymbolTableRecord
100
AcDbLinetypeTableRecord
  2
ByBlock
 70
0
  3

 72
65
 73
0
 40
0.0
  0
LTYPE
  5
25
330
2
100
AcDbSymbolTableRecord
100
AcDbLinetypeTableRecord
  2
ByLayer
 70
0
  3

 72
65
 73
0
 40
0.0
  0
LTYPE
  5
26
330
2
100
AcDbSymbolTableRecord
100
AcDbLinetypeTableRecord
  2
Continuous
 70
0
  3

 72
65
 73
0
 40
0.0
  0
LTYPE
  5
2D
330
2
100
AcDbSymbolTableRecord
100
AcDbLinetypeTableRecord
  2
CENTER
 70
0
  3
Center ____ _ ____ _ ____ _ ____ _ ____ _ ____
 72
65
 73
4
 40
2.0
 49
1.25
 74
0
 49
-0.25
 74
0
 49
0.25
 74
0
 49
-0.25
 74
0
  0
LTYPE
  5
2E
330
2
100
AcDbSymbolTableRecord
100
AcDbLinetypeTableRecord
  2
CENTERX2
 70
0
  3
Center (2x) ________  __  ________  __  ________
 72
65
 73
4
 40
3.5
 49
2.5
 74
0
 49
-0.25
 74
0
 49
0.5
 74
0
 49
-0.25
 74
0
  0
LTYPE
  5
2F
330
2
100
AcDbSymbolTableRecord
100
AcDbLinetypeTableRecord
  2
CENTER2
 70
0
  3
Center (.5x) ____ _ ____ _ ____ _ ____ _ ____
 72
65
 73
4
 40
1.0
 49
0.625
 74
0
 49
-0.125
 74
0
 49
0.125
 74
0
 49
-0.125
 74
0
  0
LTYPE
  5
30
330
2
100
AcDbSymbolTableRecord
100
AcDbLinetypeTableRecord
  2
DASHED
 70
0
  3
Dashed __ __ __ __ __ __ __ __ __ __ __ __ __ _
 72
65
 73
2
 40
0.6
 49
0.5
 74
0
 49
-0.1
 74
0
  0
LTYPE
  5
31
330
2
100
AcDbSymbolTableRecord
100
AcDbLinetypeTableRecord
  2
DASHEDX2
 70
0
  3
Dashed (2x) ____  ____  ____  ____  ____  ____
 72
65
 73
2
 40
1.2
 49
1.0
 74
0
 49
-0.2
 74
0
  0
LTYPE
  5
32
330
2
100
AcDbSymbolTableRecord
100
AcDbLinetypeTableRecord
  2
DASHED2
 70
0
  3
Dashed (.5x) _ _ _ _ _ _ _ _ _ _ _ _ _ _
 72
65
 73
2
 40
0.3
 49
0.25
 74
0
 49
-0.05
 74
0
  0
LTYPE
  5
33
330
2
100
AcDbSymbolTableRecord
100
AcDbLinetypeTableRecord
  2
PHANTOM
 70
0
  3
Phantom ______  __  __  ______  __  __  ______
 72
65
 73
6
 40
2.5
 49
1.25
 74
0
 49
-0.25
 74
0
 49
0.25
 74
0
 49
-0.25
 74
0
 49
0.25
 74
0
 49
-0.25
 74
0
  0
LTYPE
  5
34
330
2
100
AcDbSymbolTableRecord
100
AcDbLinetypeTableRecord
  2
PHANTOMX2
 70
0
  3
Phantom (2x)____________    ____    ____    ____________
 72
65
 73
6
 40
4.25
 49
2.5
 74
0
 49
-0.25
 74
0
 49
0.5
 74
0
 49
-0.25
 74
0
 49
0.5
 74
0
 49
-0.25
 74
0
  0
LTYPE
  5
35
330
2
100
AcDbSymbolTableRecord
100
AcDbLinetypeTableRecord
  2
PHANTOM2
 70
0
  3
Phantom (.5x) ___ _ _ ___ _ _ ___ _ _ ___ _ _ ___
 72
65
 73
6
 40
1.25
 49
0.625
 74
0
 49
-0.125
 74
0
 49
0.125
 74
0
 49
-0.125
 74
0
 49
0.125
 74
0
 49
-0.125
 74
0
  0
LTYPE
  5
36
330
2
100
AcDbSymbolTableRecord
100
AcDbLinetypeTableRecord
  2
DASHDOT
 70
0
  3
Dash dot __ . __ . __ . __ . __ . __ . __ . __
 72
65
 73
4
 40
1.4
 49
1.0
 74
0
 49
-0.2
 74
0
 49
0.0
 74
0
 49
-0.2
 74
0
  0
LTYPE
  5
37
330
2
100
AcDbSymbolTableRecord
100
AcDbLinetypeTableRecord
  2
DASHDOTX2
 70
0
  3
Dash dot (2x) ____  .  ____  .  ____  .  ____
 72
65
 73
4
 40
2.4
 49
2.0
 74
0
 49
-0.2
 74
0
 49
0.0
 74
0
 49
-0.2
 74
0
  0
LTYPE
  5
38
330
2
100
AcDbSymbolTableRecord
100
AcDbLinetypeTableRecord
  2
DASHDOT2
 70
0
  3
Dash dot (.5x) _ . _ . _ . _ . _ . _ . _ . _
 72
65
 73
4
 40
0.7
 49
0.5
 74
0
 49
-0.1
 74
0
 49
0.0
 74
0
 49
-0.1
 74
0
  0
LTYPE
  5
39
330
2
100
AcDbSymbolTableRecord
100
AcDbLinetypeTableRecord
  2
DOT
 70
0
  3
Dot .  .  .  .  .  .  .  .  .  .  .  .  .  .  .  .
 72
65
 73
2
 40
0.2
 49
0.0
 74
0
 49
-0.2
 74
0
  0
LTYPE
  5
3A
330
2
100
AcDbSymbolTableRecord
100
AcDbLinetypeTableRecord
  2
DOTX2
 70
0
  3
Dot (2x) .    .    .    .    .    .    .    . 
 72
65
 73
2
 40
0.4
 49
0.0
 74
0
 49
-0.4
 74
0
  0
LTYPE
  5
3B
330
2
100
AcDbSymbolTableRecord
100
AcDbLinetypeTableRecord
  2
DOT2
 70
0
  3
Dot (.5) . . . . . . . . . . . . . . . . . . . 
 72
65
 73
2
 40
0.1
 49
0.0
 74
0
 49
-0.1
 74
0
  0
LTYPE
  5
3C
330
2
100
AcDbSymbolTableRecord
100
AcDbLinetypeTableRecord
  2
DIVIDE
 70
0
  3
Divide __ . . __ . . __ . . __ . . __ . . __
 72
65
 73
6
 40
1.6
 49
1.0
 74
0
 49
-0.2
 74
0
 49
0.0
 74
0
 49
-0.2
 74
0
 49
0.0
 74
0
 49
-0.2
 74
0
  0
LTYPE
  5
3D
330
2
100
AcDbSymbolTableRecord
100
AcDbLinetypeTableRecord
  2
DIVIDEX2
 70
0
  3
Divide (2x) ____  . .  ____  . .  ____  . .  ____
 72
65
 73
6
 40
2.6
 49
2.0
 74
0
 49
-0.2
 74
0
 49
0.0
 74
0
 49
-0.2
 74
0
 49
0.0
 74
0
 49
-0.2
 74
0
  0
LTYPE
  5
3E
330
2
100
AcDbSymbolTableRecord
100
AcDbLinetypeTableRecord
  2
DIVIDE2
 70
0
  3
Divide(.5x) _ . _ . _ . _ . _ . _ . _ . _
 72
65
 73
6
 40
0.8
 49
0.5
 74
0
 49
-0.1
 74
0
 49
0.0
 74
0
 49
-0.1
 74
0
 49
0.0
 74
0
 49
-0.1
 74
0
  0
ENDTAB
  0
TABLE
  2
LAYER
  5
1
330
0
100
AcDbSymbolTable
 70
5
  0
LAYER
  5
27
330
1
100
AcDbSymbolTableRecord
100
AcDbLayerTableRecord
  2
0
 70
0
 62
7
  6
Continuous
370
-3
390
13
347
21
  0
LAYER
  5
28
330
1
100
AcDbSymbolTableRecord
100
AcDbLayerTableRecord
  2
Defpoints
 70
0
 62
7
  6
Continuous
290
0
370
-3
390
13
347
21
  0
LAYER
  5
87
330
1
100
AcDbSymbolTableRecord
100
AcDbLayerTableRecord
  2
PATHS
 70
0
 62
7
  6
Continuous
370
-3
390
13
347
21
  0
LAYER
  5
88
330
1
100
AcDbSymbolTableRecord
100
AcDbLayerTableRecord
  2
DRILLS
 70
0
 62
4
  6
Continuous
370
-3
390
13
347
21
  0
LAYER
  5
89
330
1
100
AcDbSymbolTableRecord
100
AcDbLayerTableRecord
  2
DOCUMENTATION
 70
0
 62
2
  6
Continuous
370
-3
390
13
347
21
  0
ENDTAB
  0
TABLE
  2
STYLE
  5
5
330
0
100
AcDbSymbolTable
 70
26
  0
STYLE
  5
29
330
5
100
AcDbSymbolTableRecord
100
AcDbTextStyleTableRecord
  2
Standard
 70
0
 40
0.0
 41
1.0
 50
0.0
 71
0
 42
2.5
  3
txt
  4

  0
STYLE
  5
3F
330
5
100
AcDbSymbolTableRecord
100
AcDbTextStyleTableRecord
  2
OpenSans-Light
 70
0
 40
0.0
 41
1.0
 50
0.0
 71
0
 42
2.5
  3
OpenSans-Light.ttf
  4

  0
STYLE
  5
40
330
5
100
AcDbSymbolTableRecord
100
AcDbTextStyleTableRecord
  2
OpenSans-Light-Italic
 70
0
 40
0.0
 41
1.0
 50
0.0
 71
0
 42
2.5
  3
OpenSans-LightItalic.ttf
  4

  0
STYLE
  5
41
330
5
100
AcDbSymbolTableRecord
100
AcDbTextStyleTableRecord
  2
OpenSans
 70
0
 40
0.0
 41
1.0
 50
0.0
 71
0
 42
2.5
  3
OpenSans-Regular.ttf
  4

  0
STYLE
  5
42
330
5
100
AcDbSymbolTableRecord
100
AcDbTextStyleTableRecord
  2
OpenSans-Italic
 70
0
 40
0.0
 41
1.0
 50
0.0
 71
0
 42
2.5
  3
OpenSans-Italic.ttf
  4

  0
STYLE
  5
43
330
5
100
AcDbSymbolTableRecord
100
AcDbTextStyleTableRecord
  2
OpenSans-SemiBold
 70
0
 40
0.0
 41
1.0
 50
0.0
 71
0
 42
2.5
  3
OpenSans-SemiBold.ttf
  4

  0
STYLE
  5
44
330
5
100
AcDbSymbolTableRecord
100
AcDbTextStyleTableRecord
  2
OpenSans-SemiBoldItalic
 70
0
 40
0.0
 41
1.0
 50
0.0
 71
0
 42
2.5
  3
OpenSans-SemiBoldItalic.ttf
  4

  0
STYLE
  5
45
330
5
100
AcDbSymbolTableRecord
100
AcDbTextStyleTableRecord
  2
OpenSans-Bold
 70
0
 40
0.0
 41
1.0
 50
0.0
 71
0
 42
2.5
  3
OpenSans-Bold.ttf
  4

  0
STYLE
  5
46
330
5
100
AcDbSymbolTableRecord
100
AcDbTextStyleTableRecord
  2
OpenSans-BoldItalic
 70
0
 40
0.0
 41
1.0
 50
0.0
 71
0
 42
2.5
  3
OpenSans-BoldItalic.ttf
  4

  0
STYLE
  5
47
330
5
100
AcDbSymbolTableRecord
100
AcDbTextStyleTableRecord
  2
OpenSans-ExtraBold
 70
0
 40
0.0
 41
1.0
 50
0.0
 71
0
 42
2.5
  3
OpenSans-ExtraBold.ttf
  4

  0
STYLE
  5
48
330
5
100
AcDbSymbolTableRecord
100
AcDbTextStyleTableRecord
  2
OpenSans-ExtraBoldItalic
 70
0
 40
0.0
 41
1.0
 50
0.0
 71
0
 42
2.5
  3
OpenSans-ExtraBoldItalic.ttf
  4

  0
STYLE
  5
49
330
5
100
AcDbSymbolTableRecord
100
AcDbTextStyleTableRecord
  2
OpenSansCondensed-Bold
 70
0
 40
0.0
 41
1.0
 50
0.0
 71
0
 42
2.5
  3
OpenSansCondensed-Bold.ttf
  4

  0
STYLE
  5
4A
330
5
100
AcDbSymbolTableRecord
100
AcDbTextStyleTableRecord
  2
OpenSansCondensed-Light
 70
0
 40
0.0
 41
1.0
 50
0.0
 71
0
 42
2.5
  3
OpenSansCondensed-Light.ttf
  4

  0
STYLE
  5
4B
330
5
100
AcDbSymbolTableRecord
100
AcDbTextStyleTableRecord
  2
OpenSansCondensed-Italic
 70
0
 40
0.0
 41
1.0
 50
0.0
 71
0
 42
2.5
  3
OpenSansCondensed-LightItalic.ttf
  4

  0
STYLE
  5
4C
330
5
100
AcDbSymbolTableRecord
100
AcDbTextStyleTableRecord
  2
LiberationSans
 70
0
 40
0.0
 41
1.0
 50
0.0
 71
0
 42
2.5
  3
LiberationSans-Regular.ttf
  4

  0
STYLE
  5
4D
330
5
100
AcDbSymbolTableRecord
100
AcDbTextStyleTableRecord
  2
LiberationSans-Bold
 70
0
 40
0.0
 41
1.0
 50
0.0
 71
0
 42
2.5
  3
LiberationSans-Bold.ttf
  4

  0
STYLE
  5
4E
330
5
100
AcDbSymbolTableRecord
100
AcDbTextStyleTableRecord
  2
LiberationSans-BoldItalic
 70
0
 40
0.0
 41
1.0
 50
0.0
 71
0
 42
2.5
  3
LiberationSans-BoldItalic.ttf
  4

  0
STYLE
  5
4F
330
5
100
AcDbSymbolTableRecord
100
AcDbTextStyleTableRecord
  2
LiberationSans-Italic
 70
0
 40
0.0
 41
1.0
 50
0.0
 71
0
 42
2.5
  3
LiberationSans-Italic.ttf
  4

  0
STYLE
  5
50
330
5
100
AcDbSymbolTableRecord
100
AcDbTextStyleTableRecord
  2
LiberationSerif
 70
0
 40
0.0
 41
1.0
 50
0.0
 71
0
 42
2.5
  3
LiberationSerif-Regular.ttf
  4

  0
STYLE
  5
51
330
5
100
AcDbSymbolTableRecord
100
AcDbTextStyleTableRecord
  2
LiberationSerif-Bold
 70
0
 40
0.0
 41
1.0
 50
0.0
 71
0
 42
2.5
  3
LiberationSerif-Bold.ttf
  4

  0
STYLE
  5
52
330
5
100
AcDbSymbolTableRecord
100
AcDbTextStyleTableRecord
  2
LiberationSerif-BoldItalic
 70
0
 40
0.0
 41
1.0
 50
0.0
 71
0
 42
2.5
  3
LiberationSerif-BoldItalic.ttf
  4

  0
STYLE
  5
53
330
5
100
AcDbSymbolTableRecord
100
AcDbTextStyleTableRecord
  2
LiberationSerif-Italic
 70
0
 40
0.0
 41
1.0
 50
0.0
 71
0
 42
2.5
  3
LiberationSerif-Italic.ttf
  4

  0
STYLE
  5
54
330
5
100
AcDbSymbolTableRecord
100
AcDbTextStyleTableRecord
  2
LiberationMono
 70
0
 40
0.0
 41
1.0
 50
0.0
 71
0
 42
2.5
  3
LiberationMono-Regular.ttf
  4

  0
STYLE
  5
55
330
5
100
AcDbSymbolTableRecord
100
AcDbTextStyleTableRecord
  2
LiberationMono-Bold
 70
0
 40
0.0
 41
1.0
 50
0.0
 71
0
 42
2.5
  3
LiberationMono-Bold.ttf
  4

  0
STYLE
  5
56
330
5
100
AcDbSymbolTableRecord
100
AcDbTextStyleTableRecord
  2
LiberationMono-BoldItalic
 70
0
 40
0.0
 41
1.0
 50
0.0
 71
0
 42
2.5
  3
LiberationMono-BoldItalic.ttf
  4

  0
STYLE
  5
57
330
5
100
AcDbSymbolTableRecord
100
AcDbTextStyleTableRecord
  2
LiberationMono-Italic
 70
0
 40
0.0
 41
1.0
 50
0.0
 71
0
 42
2.5
  3
LiberationMono-Italic.ttf
  4

  0
ENDTAB
  0
TABLE
  2
VIEW
  5
7
330
0
100
AcDbSymbolTable
 70
0
  0
ENDTAB
  0
TABLE
  2
UCS
  5
6
330
0
100
AcDbSymbolTable
 70
0
  0
ENDTAB
  0
TABLE
  2
APPID
  5
3
330
0
100
AcDbSymbolTable
 70
2
  0
APPID
  5
2A
330
3
100
AcDbSymbolTableRecord
100
AcDbRegAppTableRecord
  2
ACAD
 70
0
  0
APPID
  5
245
330
3
100
AcDbSymbolTableRecord
100
AcDbRegAppTableRecord
  2
HATCHBACKGROUNDCOLOR
 70
0
  0
ENDTAB
  0
TABLE
  2
DIMSTYLE
  5
4
330
0
100
AcDbSymbolTable
 70
11
100
AcDbDimStyleTable
  0
DIMSTYLE
105
2B
330
4
100
AcDbSymbolTableRecord
100
AcDbDimStyleTableRecord
  2
Standard
 70
0
 40
1.0
 41
2.5
 42
0.625
 43
3.75
 44
1.25
 45
0.0
 46
0.0
 47
0.0
 48
0.0
 49
2.5
140
2.5
141
2.5
142
0.0
143
0.03937007874
144
1.0
145
0.0
146
1.0
147
0.625
148
0.0
 69
0
 70
0
 71
0
 72
0
 73
0
 74
0
 75
0
 76
0
 77
1
 78
8
 79
0
170
0
171
3
172
1
173
0
174
0
175
0
176
0
177
0
178
0
179
0
271
0
272
2
273
2
274
3
275
0
276
0
277
2
278
44
279
0
280
0
281
0
282
0
283
0
284
8
285
0
286
0
288
0
289
3
290
0
371
-2
372
-2
  0
DIMSTYLE
105
71
330
4
100
AcDbSymbolTableRecord
100
AcDbDimStyleTableRecord
  2
EZDXF
 70
0
 40
1.0
 41
0.175
 42
0.125
 43
3.75
 44
0.375
 45
0.0
 46
0.0
 47
0.0
 48
0.0
 49
2.5
140
0.25
141
2.5
142
0.0
143
0.03937007874
144
100.0
145
0.0
146
1.0
147
0.1
148
0.0
 69
0
 70
0
 71
0
 72
0
 73
0
 74
0
 75
0
 76
0
 77
1
 78
8
 79
0
170
0
171
3
172
1
173
0
174
0
175
0
176
0
177
0
178
0
179
0
271
2
272
2
273
2
274
3
275
0
276
0
277
2
278
46
279
2
280
0
281
0
282
0
283
0
284
8
285
0
286
0
288
1
289
3
290
0
340
4A
342
72
371
-2
372
-2
  0
DIMSTYLE
105
7A
330
4
100
AcDbSymbolTableRecord
100
AcDbDimStyleTableRecord
  2
EZ_M_100_H25_CM
 70
0
 40
1.0
 41
0.25
 42
0.125
 43
3.75
 44
0.375
 45
0.0
 46
0.0
 47
0.0
 48
0.0
 49
2.5
140
0.25
141
2.5
142
0.125
143
0.03937007874
144
100.0
145
0.0
146
1.0
147
0.1
148
0.0
 69
0
 70
0
 71
0
 72
0
 73
0
 74
0
 75
0
 76
0
 77
1
 78
8
 79
0
170
0
171
3
172
1
173
0
174
0
175
0
176
0
177
0
178
0
179
0
271
2
272
2
273
2
274
3
275
0
276
0
277
2
278
46
279
2
280
0
281
0
282
0
283
0
284
8
285
0
286
0
288
1
289
3
290
0
340
4A
371
-2
372
-2
  0
DIMSTYLE
105
7B
330
4
100
AcDbSymbolTableRecord
100
AcDbDimStyleTableRecord
  2
EZ_M_50_H25_CM
 70
0
 40
1.0
 41
0.125
 42
0.0625
 43
3.75
 44
0.1875
 45
0.0
 46
0.0
 47
0.0
 48
0.0
 49
2.5
140
0.125
141
2.5
142
0.0625
143
0.03937007874
144
100.0
145
0.0
146
1.0
147
0.05
148
0.0
 69
0
 70
0
 71
0
 72
0
 73
0
 74
0
 75
0
 76
0
 77
1
 78
8
 79
0
170
0
171
3
172
1
173
0
174
0
175
0
176
0
177
0
178
0
179
0
271
2
272
2
273
2
274
3
275
0
276
0
277
2
278
46
279
2
280
0
281
0
282
0
283
0
284
8
285
0
286
0
288
1
289
3
290
0
340
4A
371
-2
372
-2
  0
DIMSTYLE
105
7C
330
4
100
AcDbSymbolTableRecord
100
AcDbDimStyleTableRecord
  2
EZ_M_25_H25_CM
 70
0
 40
1.0
 41
0.0625
 42
0.03125
 43
3.75
 44
0.09375
 45
0.0
 46
0.0
 47
0.0
 48
0.0
 49
2.5
140
0.0625
141
2.5
142
0.03125
143
0.03937007874
144
100.0
145
0.0
146
1.0
147
0.025
148
0.0
 69
0
 70
0
 71
0
 72
0
 73
0
 74
0
 75
0
 76
0
 77
1
 78
8
 79
0
170
0
171
3
172
1
173
0
174
0
175
0
176
0
177
0
178
0
179
0
271
2
272
2
273
2
274
3
275
0
276
0
277
2
278
46
279
2
280
0
281
0
282
0
283
0
284
8
285
0
286
0
288
1
289
3
290
0
340
4A
371
-2
372
-2
  0
DIMSTYLE
105
7D
330
4
100
AcDbSymbolTableRecord
100
AcDbDimStyleTableRecord
  2
EZ_M_20_H25_CM
 70
0
 40
1.0
 41
0.05
 42
0.025
 43
3.75
 44
0.07500000000000001
 45
0.0
 46
0.0
 47
0.0
 48
0.0
 49
2.5
140
0.05
141
2.5
142
0.025
143
0.03937007874
144
100.0
145
0.0
146
1.0
147
0.020000000000000004
148
0.0
 69
0
 70
0
 71
0
 72
0
 73
0
 74
0
 75
0
 76
0
 77
1
 78
8
 79
0
170
0
171
3
172
1
173
0
174
0
175
0
176
0
177
0
178
0
179
0
271
2
272
2
273
2
274
3
275
0
276
0
277
2
278
46
279
2
280
0
281
0
282
0
283
0
284
8
285
0
286
0
288
1
289
3
290
0
340
4A
371
-2
372
-2
  0
DIMSTYLE
105
7E
330
4
100
AcDbSymbolTableRecord
100
AcDbDimStyleTableRecord
  2
EZ_M_10_H25_CM
 70
0
 40
1.0
 41
0.025
 42
0.0125
 43
3.75
 44
0.037500000000000006
 45
0.0
 46
0.0
 47
0.0
 48
0.0
 49
2.5
140
0.025
141
2.5
142
0.0125
143
0.03937007874
144
100.0
145
0.0
146
1.0
147
0.010000000000000002
148
0.0
 69
0
 70
0
 71
0
 72
0
 73
0
 74
0
 75
0
 76
0
 77
1
 78
8
 79
0
170
0
171
3
172
1
173
0
174
0
175
0
176
0
177
0
178
0
179
0
271
2
272
2
273
2
274
3
275
0
276
0
277
2
278
46
279
2
280
0
281
0
282
0
283
0
284
8
285
0
286
0
288
1
289
3
290
0
340
4A
371
-2
372
-2
  0
DIMSTYLE
105
7F
330
4
100
AcDbSymbolTableRecord
100
AcDbDimStyleTableRecord
  2
EZ_M_5_H25_CM
 70
0
 40
1.0
 41
0.0125
 42
0.00625
 43
3.75
 44
0.018750000000000003
 45
0.0
 46
0.0
 47
0.0
 48
0.0
 49
2.5
140
0.0125
141
2.5
142
0.00625
143
0.03937007874
144
100.0
145
0.0
146
1.0
147
0.005000000000000001
148
0.0
 69
0
 70
0
 71
0
 72
0
 73
0
 74
0
 75
0
 76
0
 77
1
 78
8
 79
0
170
0
171
3
172
1
173
0
174
0
175
0
176
0
177
0
178
0
179
0
271
2
272
2
273
2
274
3
275
0
276
0
277
2
278
46
279
2
280
0
281
0
282
0
283
0
284
8
285
0
286
0
288
1
289
3
290
0
340
4A
371
-2
372
-2
  0
DIMSTYLE
105
80
330
4
100
AcDbSymbolTableRecord
100
AcDbDimStyleTableRecord
  2
EZ_M_1_H25_CM
 70
0
 40
1.0
 41
0.0025
 42
0.00125
 43
3.75
 44
0.00375
 45
0.0
 46
0.0
 47
0.0
 48
0.0
 49
2.5
140
0.0025
141
2.5
142
0.00125
143
0.03937007874
144
100.0
145
0.0
146
1.0
147
0.001
148
0.0
 69
0
 70
0
 71
0
 72
0
 73
0
 74
0
 75
0
 76
0
 77
1
 78
8
 79
0
170
0
171
3
172
1
173
0
174
0
175
0
176
0
177
0
178
0
179
0
271
2
272
2
273
2
274
3
275
0
276
0
277
2
278
46
279
2
280
0
281
0
282
0
283
0
284
8
285
0
286
0
288
1
289
3
290
0
340
4A
371
-2
372
-2
  0
DIMSTYLE
105
81
330
4
100
AcDbSymbolTableRecord
100
AcDbDimStyleTableRecord
  2
EZ_RADIUS
 70
0
 40
1.0
 41
0.25
 42
0.125
 43
3.75
 44
0.375
 45
0.0
 46
0.0
 47
0.0
 48
0.0
 49
2.5
140
0.25
141
0.0
142
0.0
143
0.03937007874
144
100.0
145
0.0
146
1.0
147
0.1
148
0.0
 69
0
 70
0
 71
0
 72
0
 73
0
 74
0
 75
0
 76
0
 77
1
 78
8
 79
0
170
0
171
3
172
0
173
0
174
0
175
0
176
0
177
0
178
0
179
0
271
2
272
2
273
2
274
3
275
0
276
0
277
2
278
46
279
1
280
0
281
0
282
0
283
0
284
8
285
0
286
0
288
1
289
3
290
0
340
4A
342
82
371
-2
372
-2
  0
DIMSTYLE
105
86
330
4
100
AcDbSymbolTableRecord
100
AcDbDimStyleTableRecord
  2
EZ_RADIUS_INSIDE
 70
0
 40
1.0
 41
0.25
 42
0.125
 43
3.75
 44
0.375
 45
0.0
 46
0.0
 47
0.0
 48
0.0
 49
2.5
140
0.25
141
0.0
142
0.0
143
0.03937007874
144
100.0
145
0.0
146
1.0
147
0.1
148
0.0
 69
0
 70
0
 71
0
 72
0
 73
0
 74
0
 75
0
 76
0
 77
0
 78
8
 79
0
170
0
171
3
172
0
173
0
174
1
175
0
176
0
177
0
178
0
179
0
271
2
272
2
273
2
274
3
275
0
276
0
277
2
278
46
279
0
280
0
281
0
282
0
283
0
284
8
285
0
286
0
288
1
289
0
290
0
340
4A
342
82
371
-2
372
-2
  0
ENDTAB
  0
TABLE
  2
BLOCK_RECORD
  5
9
330
0
100
AcDbSymbolTable
 70
5
  0
BLOCK_RECORD
  5
17
330
9
100
AcDbSymbolTableRecord
100
AcDbBlockTableRecord
  2
*Model_Space
340
1A
 70
0
280
1
281
0
  0
BLOCK_RECORD
  5
1B
330
9
100
AcDbSymbolTableRecord
100
AcDbBlockTableRecord
  2
*Paper_Space
340
1E
 70
0
280
1
281
0
  0
BLOCK_RECORD
  5
72
330
9
100
AcDbSymbolTableRecord
100
AcDbBlockTableRecord
  2
_ARCHTICK
340
0
 70
0
280
1
281
0
  0
BLOCK_RECORD
  5
76
330
9
100
AcDbSymbolTableRecord
100
AcDbBlockTableRecord
  2
_CLOSEDFILLED
340
0
 70
0
280
1
281
0
  0
BLOCK_RECORD
  5
82
330
9
100
AcDbSymbolTableRecord
100
AcDbBlockTableRecord
  2
_CLOSEDBLANK
340
0
 70
0
280
1
281
0
  0
ENDTAB
  0
ENDSEC
  0
SECTION
  2
BLOCKS
  0
BLOCK
  5
18
330
17
100
AcDbEntity
  8
0
100
AcDbBlockBegin
  2
*Model_Space
 70
0
 10
0.0
 20
0.0
 30
0.0
  3
*Model_Space
  1

  0
ENDBLK
  5
19
330
17
100
AcDbEntity
  8
0
100
AcDbBlockEnd
  0
BLOCK
  5
1C
330
1B
100
AcDbEntity
  8
0
100
AcDbBlockBegin
  2
*Paper_Space
 70
0
 10
0.0
 20
0.0
 30
0.0
  3
*Paper_Space
  1

  0
ENDBLK
  5
1D
330
1B
100
AcDbEntity
  8
0
100
AcDbBlockEnd
  0
BLOCK
  5
73
330
72
100
AcDbEntity
  8
0
100
AcDbBlockBegin
  2
_ARCHTICK
 70
0
 10
0.0
 20
0.0
 30
0.0
  3
_ARCHTICK
  1

  0
LWPOLYLINE
  5
75
330
72
100
AcDbEntity
  8
0
  6
BYBLOCK
 62
0
100
AcDbPolyline
 90
2
 70
0
 43
0.15
 10
-0.5
 20
-0.5000000000000001
 10
0.5000000000000001
 20
0.5
  0
ENDBLK
  5
74
330
72
100
AcDbEntity
  8
0
100
AcDbBlockEnd
  0
BLOCK
  5
77
330
76
100
AcDbEntity
  8
0
100
AcDbBlockBegin
  2
_CLOSEDFILLED
 70
0
 10
0.0
 20
0.0
 30
0.0
  3
_CLOSEDFILLED
  1

  0
SOLID
  5
79
330
76
100
AcDbEntity
  8
0
  6
BYBLOCK
 62
0
100
AcDbTrace
 10
-1.0
 20
0.1643989837240255
 30
0.0
 11
0.0
 21
0.0
 31
0.0
 12
-1.0
 22
-0.1643989837240255
 32
0.0
 13
-1.0
 23
-0.1643989837240255
 33
0.0
  0
ENDBLK
  5
78
330
76
100
AcDbEntity
  8
0
100
AcDbBlockEnd
  0
BLOCK
  5
83
330
82
100
AcDbEntity
  8
0
100
AcDbBlockBegin
  2
_CLOSEDBLANK
 70
0
 10
0.0
 20
0.0
 30
0.0
  3
_CLOSEDBLANK
  1

  0
LWPOLYLINE
  5
85
330
82
100
AcDbEntity
  8
0
  6
BYBLOCK
 62
0
100
AcDbPolyline
 90
3
 70
1
 10
-1.0
 20
0.1643989837240255
 10
0.0
 20
0.0
 10
-1.0
 20
-0.1643989837240255
  0
ENDBLK
  5
84
330
82
100
AcDbEntity
  8
0
100
AcDbBlockEnd
  0
ENDSEC
  0
SECTION
  2
ENTITIES
  0
TEXT
  5
8A
330
17
100
AcDbEntity
  8
DOCUMENTATION
 62
2
100
AcDbText
 10
72.0
 20
115.0
 30
0.0
 40
20.0
  1
yapCAD
  7
OpenSans-Bold
 11
72.0
 21
115.0
 31
0.0
100
AcDbText
  0
TEXT
  5
8B
330
17
100
AcDbEntity
  8
DOCUMENTATION
 62
2
100
AcDbText
 10
72.0
 20
90.0
 30
0.0
 40
15.0
  1
boxcut.py
 11
72.0
 21
90.0
 31
0.0
100
AcDbText
  0
TEXT
  5
8C
330
17
100
AcDbEntity
  8
DOCUMENTATION
 62
2
100
AcDbText
 10
72.0
 20
70.0
 30
0.0
 40
6.0
  1
length: 120.0mm
 11
72.0
 21
70.0
 31
0.0
100
AcDbText
  0
TEXT
  5
8D
330
17
100
AcDbEntity
  8
DOCUMENTATION
 62
2
100
AcDbText
 10
72.0
 20
62.0
 30
0.0
 40
6.0
  1
width: 90.0mm
 11
72.0
 21
62.0
 31
0.0
100
AcDbText
  0
TEXT
  5
8E
330
17
100
AcDbEntity
  8
DOCUMENTATION
 62
2
100
AcDbText
 10
72.0
 20
54.0
 30
0.0
 40
6.0
  1
height: 70.0mm
 11
72.0
 21
54.0
 31
0.0
100
AcDbText
  0
LINE
  5
8F
330
17
100
AcDbEntity
  8
PATHS
  6
Continuous
 62
7
100
AcDbLine
 10
60.39699999999999
 20
-15.396999999999998
 30
0.0
 11
60.397
 21
15.396999999999995
 31
0.0
  0
LINE
  5
90
330
17
100
AcDbEntity
  8
PATHS
  6
Continuous
 62
7
100
AcDbLine
 10
60.397000000000006
 20
15.397
 30
0.0
 11
57.222
 21
15.397
 31
0.0
  0
LINE
  5
91
330
17
100
AcDbEntity
  8
PATHS
  6
Continuous
 62
7
100
AcDbLine
 10
57.222
 20
15.397
 30
0.0
 11
57.222
 21
20.603
 31
0.0
  0
LINE
  5
92
330
17
100
AcDbEntity
  8
PATHS
  6
Continuous
 62
7
100
AcDbLine
 10
57.22210762
 20
20.603
 30
0.0
 11
60.394765748247735
 21
20.603
 31
0.0
  0
LINE
  5
93
330
17
100
AcDbEntity
  8
PATHS
  6
Continuous
 62
7
100
AcDbLine
 10
60.397000000000006
 20
20.60300000000002
 30
0.0
 11
60.397
 21
27.397000000000055
 31
0.0
  0
LINE
  5
94
330
17
100
AcDbEntity
  8
PATHS
  6
Continuous
 62
7
100
AcDbLine
 10
60.397000000000006
 20
27.397
 30
0.0
 11
57.222
 21
27.397
 31
0.0
  0
LINE
  5
95
330
17
100
AcDbEntity
  8
PATHS
  6
Continuous
 62
7
100
AcDbLine
 10
57.222
 20
27.397
 30
0.0
 11
57.222
 21
32.603
 31
0.0
  0
LINE
  5
96
330
17
100
AcDbEntity
  8
PATHS
  6
Continuous
 62
7
100
AcDbLine
 10
57.22210762
 20
32.603
 30
0.0
 11
60.3947974866971
 21
32.603
 31
0.0
  0
LINE
  5
97
330
17
100
AcDbEntity
  8
PATHS
  6
Continuous
 62
7
100
AcDbLine
 10
60.397
 20
32.603000000000016
 30
0.0
 11
60.397
 21
44.397
 31
0.0
  0
ARC
  5
98
330
17
100
AcDbEntity
  8
PATHS
  6
Continuous
 62
7
100
AcDbCircle
 10
59.397
 20
44.397
 30
0.0
 40
1.0
100
AcDbArc
 50
0.0
 51
90.0
  0
LINE
  5
99
330
17
100
AcDbEntity
  8
PATHS
  6
Continuous
 62
7
100
AcDbLine
 10
59.397
 20
45.397
 30
0.0
 11
47.603
 21
45.397
 31
0.0
  0
LINE
  5
9A
330
17
100
AcDbEntity
  8
PATHS
  6
Continuous
 62
7
100
AcDbLine
 10
47.603
 20
45.397
 30
0.0
 11
47.603
 21
42.222
 31
0.0
  0
LINE
  5
9B
330
17
100
AcDbEntity
  8
PATHS
  6
Continuous
 62
7
100
AcDbLine
 10
47.603
 20
42.222
 30
0.0
 11
42.397
 21
42.222
 31
0.0
  0
LINE
  5
9C
330
17
100
AcDbEntity
  8
PATHS
  6
Continuous
 62
7
100
AcDbLine
 10
42.397
 20
42.222
 30
0.0
 11
42.397
 21
45.39486096460991
 31
0.0
  0
LINE
  5
9D
330
17
100
AcDbEntity
  8
PATHS
  6
Continuous
 62
7
100
AcDbLine
 10
42.396999999999984
 20
45.397
 30
0.0
 11
35.603000000000044
 21
45.397
 31
0.0
  0
LINE
  5
9E
330
17
100
AcDbEntity
  8
PATHS
  6
Continuous
 62
7
100
AcDbLine
 10
35.603
 20
45.397
 30
0.0
 11
35.603
 21
42.222
 31
0.0
  0
LINE
  5
9F
330
17
100
AcDbEntity
  8
PATHS
  6
Continuous
 62
7
100
AcDbLine
 10
35.603
 20
42.222
 30
0.0
 11
30.397
 21
42.222
 31
0.0
  0
LINE
  5
A0
330
17
100
AcDbEntity
  8
PATHS
  6
Continuous
 62
7
100
AcDbLine
 10
30.397
 20
42.222
 30
0.0
 11
30.397
 21
45.39482922530511
 31
0.0
  0
LINE
  5
A1
330
17
100
AcDbEntity
  8
PATHS
  6
Continuous
 62
7
100
AcDbLine
 10
30.397
 20
45.397
 30
0.0
 11
-30.396999999999966
 21
45.397000000000006
 31
0.0
  0
LINE
  5
A2
330
17
100
AcDbEntity
  8
PATHS
  6
Continuous
 62
7
100
AcDbLine
 10
-30.397
 20
45.397000000000006
 30
0.0
 11
-30.397
 21
42.222
 31
0.0
  0
LINE
  5
A3
330
17
100
AcDbEntity
  8
PATHS
  6
Continuous
 62
7
100
AcDbLine
 10
-30.397
 20
42.222
 30
0.0
 11
-35.603
 21
42.222
 31
0.0
  0
LINE
  5
A4
330
17
100
AcDbEntity
  8
PATHS
  6
Continuous
 62
7
100
AcDbLine
 10
-35.603
 20
42.222
 30
0.0
 11
-35.603
 21
45.394702270748965
 31
0.0
  0
LINE
  5
A5
330
17
100
AcDbEntity
  8
PATHS
  6
Continuous
 62
7
100
AcDbLine
 10
-35.60299999999998
 20
45.397000000000006
 30
0.0
 11
-42.39700000000003
 21
45.397000000000006
 31
0.0
  0
LINE
  5
A6
330
17
100
AcDbEntity
  8
PATHS
  6
Continuous
 62
7
100
AcDbLine
 10
-42.397
 20
45.397
 30
0.0
 11
-42.397
 21
42.222
 31
0.0
  0
LINE
  5
A7
330
17
100
AcDbEntity
  8
PATHS
  6
Continuous
 62
7
100
AcDbLine
 10
-42.397
 20
42.222
 30
0.0
 11
-47.603
 21
42.222
 31
0.0
  0
LINE
  5
A8
330
17
100
AcDbEntity
  8
PATHS
  6
Continuous
 62
7
100
AcDbLine
 10
-47.603
 20
42.222
 30
0.0
 11
-47.603
 21
45.39473400941899
 31
0.0
  0
LINE
  5
A9
330
17
100
AcDbEntity
  8
PATHS
  6
Continuous
 62
7
100
AcDbLine
 10
-47.603000000000016
 20
45.397
 30
0.0
 11
-59.397
 21
45.397
 31
0.0
  0
ARC
  5
AA
330
17
100
AcDbEntity
  8
PATHS
  6
Continuous
 62
7
100
AcDbCircle
 10
-59.397
 20
44.397
 30
0.0
 40
1.0
100
AcDbArc
 50
90.0
 51
179.87926083722198
  0
LINE
  5
AB
330
17
100
AcDbEntity
  8
PATHS
  6
Continuous
 62
7
100
AcDbLine
 10
-60.397
 20
44.397
 30
0.0
 11
-60.39699999999999
 21
32.603
 31
0.0
  0
LINE
  5
AC
330
17
100
AcDbEntity
  8
PATHS
  6
Continuous
 62
7
100
AcDbLine
 10
-60.397
 20
32.603
 30
0.0
 11
-57.222
 21
32.603
 31
0.0
  0
LINE
  5
AD
330
17
100
AcDbEntity
  8
PATHS
  6
Continuous
 62
7
100
AcDbLine
 10
-57.222
 20
32.603
 30
0.0
 11
-57.222
 21
27.397
 31
0.0
  0
LINE
  5
AE
330
17
100
AcDbEntity
  8
PATHS
  6
Continuous
 62
7
100
AcDbLine
 10
-57.222
 20
27.397
 30
0.0
 11
-60.394670532237576
 21
27.397
 31
0.0
  0
LINE
  5
AF
330
17
100
AcDbEntity
  8
PATHS
  6
Continuous
 62
7
100
AcDbLine
 10
-60.397
 20
27.397
 30
0.0
 11
-60.397
 21
20.602999999999962
 31
0.0
  0
LINE
  5
B0
330
17
100
AcDbEntity
  8
PATHS
  6
Continuous
 62
7
100
AcDbLine
 10
-60.397
 20
20.603
 30
0.0
 11
-57.222
 21
20.603
 31
0.0
  0
LINE
  5
B1
330
17
100
AcDbEntity
  8
PATHS
  6
Continuous
 62
7
100
AcDbLine
 10
-57.222
 20
20.603
 30
0.0
 11
-57.222
 21
15.397
 31
0.0
  0
LINE
  5
B2
330
17
100
AcDbEntity
  8
PATHS
  6
Continuous
 62
7
100
AcDbLine
 10
-57.222
 20
15.397
 30
0.0
 11
-60.394638793884965
 21
15.397
 31
0.0
  0
LINE
  5
B3
330
17
100
AcDbEntity
  8
PATHS
  6
Continuous
 62
7
100
AcDbLine
 10
-60.397
 20
15.396999999999998
 30
0.0
 11
-60.397000000000006
 21
-15.39699999999994
 31
0.0
  0
LINE
  5
B4
330
17
100
AcDbEntity
  8
PATHS
  6
Continuous
 62
7
100
AcDbLine
 10
-60.397000000000006
 20
-15.397
 30
0.0
 11
-57.222
 21
-15.397
 31
0.0
  0
LINE
  5
B5
330
17
100
AcDbEntity
  8
PATHS
  6
Continuous
 62
7
100
AcDbLine
 10
-57.222
 20
-15.397
 30
0.0
 11
-57.222
 21
-20.603
 31
0.0
  0
LINE
  5
B6
330
17
100
AcDbEntity
  8
PATHS
  6
Continuous
 62
7
100
AcDbLine
 10
-57.22210762
 20
-20.603
 30
0.0
 11
-60.39451184313744
 21
-20.603
 31
0.0
  0
LINE
  5
B7
330
17
100
AcDbEntity
  8
PATHS
  6
Continuous
 62
7
100
AcDbLine
 10
-60.397
 20
-20.603000000000012
 30
0.0
 11
-60.397
 21
-27.396999999999938
 31
0.0
  0
LINE
  5
B8
330
17
100
AcDbEntity
  8
PATHS
  6
Continuous
 62
7
100
AcDbLine
 10
-60.397000000000006
 20
-27.397
 30
0.0
 11
-57.222
 21
-27.397
 31
0.0
  0
LINE
  5
B9
330
17
100
AcDbEntity
  8
PATHS
  6
Continuous
 62
7
100
AcDbLine
 10
-57.222
 20
-27.397
 30
0.0
 11
-57.222
 21
-32.603
 31
0.0
  0
LINE
  5
BA
330
17
100
AcDbEntity
  8
PATHS
  6
Continuous
 62
7
100
AcDbLine
 10
-57.22210762
 20
-32.603
 30
0.0
 11
-60.394543580317205
 21
-32.603
 31
0.0
  0
LINE
  5
BB
330
17
100
AcDbEntity
  8
PATHS
  6
Continuous
 62
7
100
AcDbLine
 10
-60.397
 20
-32.603000000000016
 30
0.0
 11
-60.397
 21
-44.397
 31
0.0
  0
ARC
  5
BC
330
17
100
AcDbEntity
  8
PATHS
  6
Continuous
 62
7
100
AcDbCircle
 10
-59.397
 20
-44.397
 30
0.0
 40
1.0
100
AcDbArc
 50
180.0
 51
270.0
  0
LINE
  5
BD
330
17
100
AcDbEntity
  8
PATHS
  6
Continuous
 62
7
100
AcDbLine
 10
-59.397
 20
-45.397
 30
0.0
 11
-47.60300000000006
 21
-45.39699999999999
 31
0.0
  0
LINE
  5
BE
330
17
100
AcDbEntity
  8
PATHS
  6
Continuous
 62
7
100
AcDbLine
 10
-47.603
 20
-45.397
 30
0.0
 11
-47.603
 21
-42.222
 31
0.0
  0
LINE
  5
BF
330
17
100
AcDbEntity
  8
PATHS
  6
Continuous
 62
7
100
AcDbLine
 10
-47.603
 20
-42.222
 30
0.0
 11
-42.397
 21
-42.222
 31
0.0
  0
LINE
  5
C0
330
17
100
AcDbEntity
  8
PATHS
  6
Continuous
 62
7
100
AcDbLine
 10
-42.397
 20
-42.222
 30
0.0
 11
-42.397
 21
-45.39460705569099
 31
0.0
  0
LINE
  5
C1
330
17
100
AcDbEntity
  8
PATHS
  6
Continuous
 62
7
100
AcDbLine
 10
-42.396999999999984
 20
-45.397
 30
0.0
 11
-35.602999999999994
 21
-45.397
 31
0.0
  0
LINE
  5
C2
330
17
100
AcDbEntity
  8
PATHS
  6
Continuous
 62
7
100
AcDbLine
 10
-35.603
 20
-45.397
 30
0.0
 11
-35.603
 21
-42.222
 31
0.0
  0
LINE
  5
C3
330
17
100
AcDbEntity
  8
PATHS
  6
Continuous
 62
7
100
AcDbLine
 10
-35.603
 20
-42.222
 30
0.0
 11
-30.397
 21
-42.222
 31
0.0
  0
LINE
  5
C4
330
17
100
AcDbEntity
  8
PATHS
  6
Continuous
 62
7
100
AcDbLine
 10
-30.397
 20
-42.222
 30
0.0
 11
-30.397
 21
-45.39457531765567
 31
0.0
  0
LINE
  5
C5
330
17
100
AcDbEntity
  8
PATHS
  6
Continuous
 62
7
100
AcDbLine
 10
-30.397
 20
-45.397
 30
0.0
 11
30.396999999999952
 21
-45.397
 31
0.0
  0
LINE
  5
C6
330
17
100
AcDbEntity
  8
PATHS
  6
Continuous
 62
7
100
AcDbLine
 10
30.397
 20
-45.397
 30
0.0
 11
30.397
 21
-42.222
 31
0.0
  0
LINE
  5
C7
330
17
100
AcDbEntity
  8
PATHS
  6
Continuous
 62
7
100
AcDbLine
 10
30.397
 20
-42.222
 30
0.0
 11
35.603
 21
-42.222
 31
0.0
  0
LINE
  5
C8
330
17
100
AcDbEntity
  8
PATHS
  6
Continuous
 62
7
100
AcDbLine
 10
35.603
 20
-42.222
 30
0.0
 11
35.603
 21
-45.394448368177684
 31
0.0
  0
LINE
  5
C9
330
17
100
AcDbEntity
  8
PATHS
  6
Continuous
 62
7
100
AcDbLine
 10
35.60299999999996
 20
-45.397
 30
0.0
 11
42.397000000000006
 21
-45.397
 31
0.0
  0
LINE
  5
CA
330
17
100
AcDbEntity
  8
PATHS
  6
Continuous
 62
7
100
AcDbLine
 10
42.397
 20
-45.397
 30
0.0
 11
42.397
 21
-42.222
 31
0.0
  0
LINE
  5
CB
330
17
100
AcDbEntity
  8
PATHS
  6
Continuous
 62
7
100
AcDbLine
 10
42.397
 20
-42.222
 30
0.0
 11
47.603
 21
-42.222
 31
0.0
  0
LINE
  5
CC
330
17
100
AcDbEntity
  8
PATHS
  6
Continuous
 62
7
100
AcDbLine
 10
47.603
 20
-42.222
 30
0.0
 11
47.603
 21
-45.394480105578175
 31
0.0
  0
LINE
  5
CD
330
17
100
AcDbEntity
  8
PATHS
  6
Continuous
 62
7
100
AcDbLine
 10
47.603000000000016
 20
-45.397
 30
0.0
 11
59.397
 21
-45.397
 31
0.0
  0
ARC
  5
CE
330
17
100
AcDbEntity
  8
PATHS
  6
Continuous
 62
7
100
AcDbCircle
 10
59.397
 20
-44.397
 30
0.0
 40
1.0
100
AcDbArc
 50
270.0
 51
0.0
  0
LINE
  5
CF
330
17
100
AcDbEntity
  8
PATHS
  6
Continuous
 62
7
100
AcDbLine
 10
60.397
 20
-44.397
 30
0.0
 11
60.397
 21
-32.60300000000006
 31
0.0
  0
LINE
  5
D0
330
17
100
AcDbEntity
  8
PATHS
  6
Continuous
 62
7
100
AcDbLine
 10
60.397
 20
-32.603
 30
0.0
 11
57.222
 21
-32.603
 31
0.0
  0
LINE
  5
D1
330
17
100
AcDbEntity
  8
PATHS
  6
Continuous
 62
7
100
AcDbLine
 10
57.222
 20
-32.603
 30
0.0
 11
57.222
 21
-27.397
 31
0.0
  0
LINE
  5
D2
330
17
100
AcDbEntity
  8
PATHS
  6
Continuous
 62
7
100
AcDbLine
 10
57.222
 20
-27.397
 30
0.0
 11
60.394416630935844
 21
-27.397
 31
0.0
  0
LINE
  5
D3
330
17
100
AcDbEntity
  8
PATHS
  6
Continuous
 62
7
100
AcDbLine
 10
60.39699999999999
 20
-27.397000000000002
 30
0.0
 11
60.39699999999999
 21
-20.60299999999999
 31
0.0
  0
LINE
  5
D4
330
17
100
AcDbEntity
  8
PATHS
  6
Continuous
 62
7
100
AcDbLine
 10
60.39699999999999
 20
-20.603
 30
0.0
 11
57.222
 21
-20.603
 31
0.0
  0
LINE
  5
D5
330
17
100
AcDbEntity
  8
PATHS
  6
Continuous
 62
7
100
AcDbLine
 10
57.222
 20
-20.603
 30
0.0
 11
57.222
 21
-15.397
 31
0.0
  0
LINE
  5
D6
330
17
100
AcDbEntity
  8
PATHS
  6
Continuous
 62
7
100
AcDbLine
 10
57.222
 20
-15.397
 30
0.0
 11
60.39699999999999
 21
-15.396999999999998
 31
0.0
  0
LINE
  5
D7
330
17
100
AcDbEntity
  8
PATHS
  6
Continuous
 62
7
100
AcDbLine
 10
269.39700000000005
 20
-15.396999999999998
 30
0.0
 11
269.39700000000005
 21
15.396999999999995
 31
0.0
  0
LINE
  5
D8
330
17
100
AcDbEntity
  8
PATHS
  6
Continuous
 62
7
100
AcDbLine
 10
269.39700000000005
 20
15.397
 30
0.0
 11
266.22200000000004
 21
15.397
 31
0.0
  0
LINE
  5
D9
330
17
100
AcDbEntity
  8
PATHS
  6
Continuous
 62
7
100
AcDbLine
 10
266.22200000000004
 20
15.397
 30
0.0
 11
266.22200000000004
 21
20.603
 31
0.0
  0
LINE
  5
DA
330
17
100
AcDbEntity
  8
PATHS
  6
Continuous
 62
7
100
AcDbLine
 10
266.22210762000003
 20
20.603
 30
0.0
 11
269.3947657482478
 21
20.603
 31
0.0
  0
LINE
  5
DB
330
17
100
AcDbEntity
  8
PATHS
  6
Continuous
 62
7
100
AcDbLine
 10
269.39700000000005
 20
20.60300000000002
 30
0.0
 11
269.39700000000005
 21
27.397000000000055
 31
0.0
  0
LINE
  5
DC
330
17
100
AcDbEntity
  8
PATHS
  6
Continuous
 62
7
100
AcDbLine
 10
269.39700000000005
 20
27.397
 30
0.0
 11
266.22200000000004
 21
27.397
 31
0.0
  0
LINE
  5
DD
330
17
100
AcDbEntity
  8
PATHS
  6
Continuous
 62
7
100
AcDbLine
 10
266.22200000000004
 20
27.397
 30
0.0
 11
266.22200000000004
 21
32.603
 31
0.0
  0
LINE
  5
DE
330
17
100
AcDbEntity
  8
PATHS
  6
Continuous
 62
7
100
AcDbLine
 10
266.22210762000003
 20
32.603
 30
0.0
 11
269.39479748669714
 21
32.603
 31
0.0
  0
LINE
  5
DF
330
17
100
AcDbEntity
  8
PATHS
  6
Continuous
 62
7
100
AcDbLine
 10
269.39700000000005
 20
32.603000000000016
 30
0.0
 11
269.39700000000005
 21
44.397
 31
0.0
  0
ARC
  5
E0
330
17
100
AcDbEntity
  8
PATHS
  6
Continuous
 62
7
100
AcDbCircle
 10
268.39700000000005
 20
44.397
 30
0.0
 40
1.0
100
AcDbArc
 50
0.0
 51
90.0
  0
LINE
  5
E1
330
17
100
AcDbEntity
  8
PATHS
  6
Continuous
 62
7
100
AcDbLine
 10
268.39700000000005
 20
45.397
 30
0.0
 11
256.603
 21
45.397
 31
0.0
  0
LINE
  5
E2
330
17
100
AcDbEntity
  8
PATHS
  6
Continuous
 62
7
100
AcDbLine
 10
256.603
 20
45.397
 30
0.0
 11
256.603
 21
42.222
 31
0.0
  0
LINE
  5
E3
330
17
100
AcDbEntity
  8
PATHS
  6
Continuous
 62
7
100
AcDbLine
 10
256.603
 20
42.222
 30
0.0
 11
251.39700000000002
 21
42.222
 31
0.0
  0
LINE
  5
E4
330
17
100
AcDbEntity
  8
PATHS
  6
Continuous
 62
7
100
AcDbLine
 10
251.39700000000002
 20
42.222
 30
0.0
 11
251.39700000000002
 21
45.39486096460991
 31
0.0
  0
LINE
  5
E5
330
17
100
AcDbEntity
  8
PATHS
  6
Continuous
 62
7
100
AcDbLine
 10
251.39700000000002
 20
45.397
 30
0.0
 11
244.60300000000007
 21
45.397
 31
0.0
  0
LINE
  5
E6
330
17
100
AcDbEntity
  8
PATHS
  6
Continuous
 62
7
100
AcDbLine
 10
244.60300000000004
 20
45.397
 30
0.0
 11
244.60300000000004
 21
42.222
 31
0.0
  0
LINE
  5
E7
330
17
100
AcDbEntity
  8
PATHS
  6
Continuous
 62
7
100
AcDbLine
 10
244.60300000000004
 20
42.222
 30
0.0
 11
239.39700000000002
 21
42.222
 31
0.0
  0
LINE
  5
E8
330
17
100
AcDbEntity
  8
PATHS
  6
Continuous
 62
7
100
AcDbLine
 10
239.39700000000002
 20
42.222
 30
0.0
 11
239.39700000000002
 21
45.39482922530511
 31
0.0
  0
LINE
  5
E9
330
17
100
AcDbEntity
  8
PATHS
  6
Continuous
 62
7
100
AcDbLine
 10
239.39700000000002
 20
45.397
 30
0.0
 11
178.60300000000007
 21
45.397000000000006
 31
0.0
  0
LINE
  5
EA
330
17
100
AcDbEntity
  8
PATHS
  6
Continuous
 62
7
100
AcDbLine
 10
178.60300000000004
 20
45.397000000000006
 30
0.0
 11
178.60300000000004
 21
42.222
 31
0.0
  0
LINE
  5
EB
330
17
100
AcDbEntity
  8
PATHS
  6
Continuous
 62
7
100
AcDbLine
 10
178.60300000000004
 20
42.222
 30
0.0
 11
173.39700000000002
 21
42.222
 31
0.0
  0
LINE
  5
EC
330
17
100
AcDbEntity
  8
PATHS
  6
Continuous
 62
7
100
AcDbLine
 10
173.39700000000002
 20
42.222
 30
0.0
 11
173.39700000000002
 21
45.394702270748965
 31
0.0
  0
LINE
  5
ED
330
17
100
AcDbEntity
  8
PATHS
  6
Continuous
 62
7
100
AcDbLine
 10
173.39700000000005
 20
45.397000000000006
 30
0.0
 11
166.603
 21
45.397000000000006
 31
0.0
  0
LINE
  5
EE
330
17
100
AcDbEntity
  8
PATHS
  6
Continuous
 62
7
100
AcDbLine
 10
166.60300000000004
 20
45.397
 30
0.0
 11
166.60300000000004
 21
42.222
 31
0.0
  0
LINE
  5
EF
330
17
100
AcDbEntity
  8
PATHS
  6
Continuous
 62
7
100
AcDbLine
 10
166.60300000000004
 20
42.222
 30
0.0
 11
161.39700000000002
 21
42.222
 31
0.0
  0
LINE
  5
F0
330
17
100
AcDbEntity
  8
PATHS
  6
Continuous
 62
7
100
AcDbLine
 10
161.39700000000002
 20
42.222
 30
0.0
 11
161.39700000000002
 21
45.39473400941899
 31
0.0
  0
LINE
  5
F1
330
17
100
AcDbEntity
  8
PATHS
  6
Continuous
 62
7
100
AcDbLine
 10
161.39700000000002
 20
45.397
 30
0.0
 11
149.60300000000004
 21
45.397
 31
0.0
  0
ARC
  5
F2
330
17
100
AcDbEntity
  8
PATHS
  6
Continuous
 62
7
100
AcDbCircle
 10
149.60300000000004
 20
44.397
 30
0.0
 40
1.0
100
AcDbArc
 50
90.0
 51
179.87926083722198
  0
LINE
  5
F3
330
17
100
AcDbEntity
  8
PATHS
  6
Continuous
 62
7
100
AcDbLine
 10
148.60300000000004
 20
44.397
 30
0.0
 11
148.60300000000004
 21
32.603
 31
0.0
  0
LINE
  5
F4
330
17
100
AcDbEntity
  8
PATHS
  6
Continuous
 62
7
100
AcDbLine
 10
148.60300000000004
 20
32.603
 30
0.0
 11
151.77800000000002
 21
32.603
 31
0.0
  0
LINE
  5
F5
330
17
100
AcDbEntity
  8
PATHS
  6
Continuous
 62
7
100
AcDbLine
 10
151.77800000000002
 20
32.603
 30
0.0
 11
151.77800000000002
 21
27.397
 31
0.0
  0
LINE
  5
F6
330
17
100
AcDbEntity
  8
PATHS
  6
Continuous
 62
7
100
AcDbLine
 10
151.77800000000002
 20
27.397
 30
0.0
 11
148.60532946776246
 21
27.397
 31
0.0
  0
LINE
  5
F7
330
17
100
AcDbEntity
  8
PATHS
  6
Continuous
 62
7
100
AcDbLine
 10
148.60300000000004
 20
27.397
 30
0.0
 11
148.60300000000004
 21
20.602999999999962
 31
0.0
  0
LINE
  5
F8
330
17
100
AcDbEntity
  8
PATHS
  6
Continuous
 62
7
100
AcDbLine
 10
148.60300000000004
 20
20.603
 30
0.0
 11
151.77800000000002
 21
20.603
 31
0.0
  0
LINE
  5
F9
330
17
100
AcDbEntity
  8
PATHS
  6
Continuous
 62
7
100
AcDbLine
 10
151.77800000000002
 20
20.603
 30
0.0
 11
151.77800000000002
 21
15.397
 31
0.0
  0
LINE
  5
FA
330
17
100
AcDbEntity
  8
PATHS
  6
Continuous
 62
7
100
AcDbLine
 10
151.77800000000002
 20
15.397
 30
0.0
 11
148.60536120611505
 21
15.397
 31
0.0
  0
LINE
  5
FB
330
17
100
AcDbEntity
  8
PATHS
  6
Continuous
 62
7
100
AcDbLine
 10
148.60300000000004
 20
15.396999999999998
 30
0.0
 11
148.603
 21
-15.39699999999994
 31
0.0
  0
LINE
  5
FC
330
17
100
AcDbEntity
  8
PATHS
  6
Continuous
 62
7
100
AcDbLine
 10
148.603
 20
-15.397
 30
0.0
 11
151.77800000000002
 21
-15.397
 31
0.0
  0
LINE
  5
FD
330
17
100
AcDbEntity
  8
PATHS
  6
Continuous
 62
7
100
AcDbLine
 10
151.77800000000002
 20
-15.397
 30
0.0
 11
151.77800000000002
 21
-20.603
 31
0.0
  0
LINE
  5
FE
330
17
100
AcDbEntity
  8
PATHS
  6
Continuous
 62
7
100
AcDbLine
 10
151.77789238000003
 20
-20.603
 30
0.0
 11
148.60548815686258
 21
-20.603
 31
0.0
  0
LINE
  5
FF
330
17
100
AcDbEntity
  8
PATHS
  6
Continuous
 62
7
100
AcDbLine
 10
148.60300000000004
 20
-20.603000000000012
 30
0.0
 11
148.60300000000004
 21
-27.396999999999938
 31
0.0
  0
LINE
  5
100
330
17
100
AcDbEntity
  8
PATHS
  6
Continuous
 62
7
100
AcDbLine
 10
148.603
 20
-27.397
 30
0.0
 11
151.77800000000002
 21
-27.397
 31
0.0
  0
LINE
  5
101
330
17
100
AcDbEntity
  8
PATHS
  6
Continuous
 62
7
100
AcDbLine
 10
151.77800000000002
 20
-27.397
 30
0.0
 11
151.77800000000002
 21
-32.603
 31
0.0
  0
LINE
  5
102
330
17
100
AcDbEntity
  8
PATHS
  6
Continuous
 62
7
100
AcDbLine
 10
151.77789238000003
 20
-32.603
 30
0.0
 11
148.6054564196828
 21
-32.603
 31
0.0
  0
LINE
  5
103
330
17
100
AcDbEntity
  8
PATHS
  6
Continuous
 62
7
100
AcDbLine
 10
148.60300000000004
 20
-32.603000000000016
 30
0.0
 11
148.60300000000004
 21
-44.397
 31
0.0
  0
ARC
  5
104
330
17
100
AcDbEntity
  8
PATHS
  6
Continuous
 62
7
100
AcDbCircle
 10
149.60300000000004
 20
-44.397
 30
0.0
 40
1.0
100
AcDbArc
 50
180.0
 51
270.0
  0
LINE
  5
105
330
17
100
AcDbEntity
  8
PATHS
  6
Continuous
 62
7
100
AcDbLine
 10
149.60300000000004
 20
-45.397
 30
0.0
 11
161.39699999999996
 21
-45.39699999999999
 31
0.0
  0
LINE
  5
106
330
17
100
AcDbEntity
  8
PATHS
  6
Continuous
 62
7
100
AcDbLine
 10
161.39700000000002
 20
-45.397
 30
0.0
 11
161.39700000000002
 21
-42.222
 31
0.0
  0
LINE
  5
107
330
17
100
AcDbEntity
  8
PATHS
  6
Continuous
 62
7
100
AcDbLine
 10
161.39700000000002
 20
-42.222
 30
0.0
 11
166.60300000000004
 21
-42.222
 31
0.0
  0
LINE
  5
108
330
17
100
AcDbEntity
  8
PATHS
  6
Continuous
 62
7
100
AcDbLine
 10
166.60300000000004
 20
-42.222
 30
0.0
 11
166.60300000000004
 21
-45.39460705569099
 31
0.0
  0
LINE
  5
109
330
17
100
AcDbEntity
  8
PATHS
  6
Continuous
 62
7
100
AcDbLine
 10
166.60300000000004
 20
-45.397
 30
0.0
 11
173.39700000000005
 21
-45.397
 31
0.0
  0
LINE
  5
10A
330
17
100
AcDbEntity
  8
PATHS
  6
Continuous
 62
7
100
AcDbLine
 10
173.39700000000002
 20
-45.397
 30
0.0
 11
173.39700000000002
 21
-42.222
 31
0.0
  0
LINE
  5
10B
330
17
100
AcDbEntity
  8
PATHS
  6
Continuous
 62
7
100
AcDbLine
 10
173.39700000000002
 20
-42.222
 30
0.0
 11
178.60300000000004
 21
-42.222
 31
0.0
  0
LINE
  5
10C
330
17
100
AcDbEntity
  8
PATHS
  6
Continuous
 62
7
100
AcDbLine
 10
178.60300000000004
 20
-42.222
 30
0.0
 11
178.60300000000004
 21
-45.39457531765567
 31
0.0
  0
LINE
  5
10D
330
17
100
AcDbEntity
  8
PATHS
  6
Continuous
 62
7
100
AcDbLine
 10
178.60300000000004
 20
-45.397
 30
0.0
 11
239.397
 21
-45.397
 31
0.0
  0
LINE
  5
10E
330
17
100
AcDbEntity
  8
PATHS
  6
Continuous
 62
7
100
AcDbLine
 10
239.39700000000002
 20
-45.397
 30
0.0
 11
239.39700000000002
 21
-42.222
 31
0.0
  0
LINE
  5
10F
330
17
100
AcDbEntity
  8
PATHS
  6
Continuous
 62
7
100
AcDbLine
 10
239.39700000000002
 20
-42.222
 30
0.0
 11
244.60300000000004
 21
-42.222
 31
0.0
  0
LINE
  5
110
330
17
100
AcDbEntity
  8
PATHS
  6
Continuous
 62
7
100
AcDbLine
 10
244.60300000000004
 20
-42.222
 30
0.0
 11
244.60300000000004
 21
-45.394448368177684
 31
0.0
  0
LINE
  5
111
330
17
100
AcDbEntity
  8
PATHS
  6
Continuous
 62
7
100
AcDbLine
 10
244.60299999999998
 20
-45.397
 30
0.0
 11
251.39700000000005
 21
-45.397
 31
0.0
  0
LINE
  5
112
330
17
100
AcDbEntity
  8
PATHS
  6
Continuous
 62
7
100
AcDbLine
 10
251.39700000000002
 20
-45.397
 30
0.0
 11
251.39700000000002
 21
-42.222
 31
0.0
  0
LINE
  5
113
330
17
100
AcDbEntity
  8
PATHS
  6
Continuous
 62
7
100
AcDbLine
 10
251.39700000000002
 20
-42.222
 30
0.0
 11
256.603
 21
-42.222
 31
0.0
  0
LINE
  5
114
330
17
100
AcDbEntity
  8
PATHS
  6
Continuous
 62
7
100
AcDbLine
 10
256.603
 20
-42.222
 30
0.0
 11
256.603
 21
-45.394480105578175
 31
0.0
  0
LINE
  5
115
330
17
100
AcDbEntity
  8
PATHS
  6
Continuous
 62
7
100
AcDbLine
 10
256.60300000000007
 20
-45.397
 30
0.0
 11
268.39700000000005
 21
-45.397
 31
0.0
  0
ARC
  5
116
330
17
100
AcDbEntity
  8
PATHS
  6
Continuous
 62
7
100
AcDbCircle
 10
268.39700000000005
 20
-44.397
 30
0.0
 40
1.0
100
AcDbArc
 50
270.0
 51
0.0
  0
LINE
  5
117
330
17
100
AcDbEntity
  8
PATHS
  6
Continuous
 62
7
100
AcDbLine
 10
269.39700000000005
 20
-44.397
 30
0.0
 11
269.39700000000005
 21
-32.60300000000006
 31
0.0
  0
LINE
  5
118
330
17
100
AcDbEntity
  8
PATHS
  6
Continuous
 62
7
100
AcDbLine
 10
269.39700000000005
 20
-32.603
 30
0.0
 11
266.22200000000004
 21
-32.603
 31
0.0
  0
LINE
  5
119
330
17
100
AcDbEntity
  8
PATHS
  6
Continuous
 62
7
100
AcDbLine
 10
266.22200000000004
 20
-32.603
 30
0.0
 11
266.22200000000004
 21
-27.397
 31
0.0
  0
LINE
  5
11A
330
17
100
AcDbEntity
  8
PATHS
  6
Continuous
 62
7
100
AcDbLine
 10
266.22200000000004
 20
-27.397
 30
0.0
 11
269.3944166309359
 21
-27.397
 31
0.0
  0
LINE
  5
11B
330
17
100
AcDbEntity
  8
PATHS
  6
Continuous
 62
7
100
AcDbLine
 10
269.39700000000005
 20
-27.397000000000002
 30
0.0
 11
269.39700000000005
 21
-20.60299999999999
 31
0.0
  0
LINE
  5
11C
330
17
100
AcDbEntity
  8
PATHS
  6
Continuous
 62
7
100
AcDbLine
 10
269.39700000000005
 20
-20.603
 30
0.0
 11
266.22200000000004
 21
-20.603
 31
0.0
  0
LINE
  5
11D
330
17
100
AcDbEntity
  8
PATHS
  6
Continuous
 62
7
100
AcDbLine
 10
266.22200000000004
 20
-20.603
 30
0.0
 11
266.22200000000004
 21
-15.397
 31
0.0
  0
LINE
  5
11E
330
17
100
AcDbEntity
  8
PATHS
  6
Continuous
 62
7
100
AcDbLine
 10
266.22200000000004
 20
-15.397
 30
0.0
 11
269.39700000000005
 21
-15.396999999999998
 31
0.0
  0
TEXT
  5
11F
330
17
100
AcDbEntity
  8
DOCUMENTATION
 62
2
100
AcDbText
 10
0.0
 20
0.0
 30
0.0
 40
6.0
  1
bottom
 72
1
 11
0.0
 21
0.0
 31
0.0
100
AcDbText
  0
TEXT
  5
120
330
17
100
AcDbEntity
  8
DOCUMENTATION
 62
2
100
AcDbText
 10
209.00000000000003
 20
0.0
 30
0.0
 40
6.0
  1
top
 72
1
 11
209.00000000000003
 21
0.0
 31
0.0
100
AcDbText
  0
LINE
  5
121
330
17
100
AcDbEntity
  8
PATHS
  6
Continuous
 62
7
100
AcDbLine
 10
60.397
 20
-92.603
 30
0.0
 11
60.397000000000006
 21
-83.39699999999996
 31
0.0
  0
LINE
  5
122
330
17
100
AcDbEntity
  8
PATHS
  6
Continuous
 62
7
100
AcDbLine
 10
60.397000000000006
 20
-83.397
 30
0.0
 11
56.428
 21
-83.397
 31
0.0
  0
LINE
  5
123
330
17
100
AcDbEntity
  8
PATHS
  6
Continuous
 62
7
100
AcDbLine
 10
56.428
 20
-83.397
 30
0.0
 11
56.428
 21
-76.603
 31
0.0
  0
LINE
  5
124
330
17
100
AcDbEntity
  8
PATHS
  6
Continuous
 62
7
100
AcDbLine
 10
56.42813938
 20
-76.603
 30
0.0
 11
60.39501336472888
 21
-76.603
 31
0.0
  0
LINE
  5
125
330
17
100
AcDbEntity
  8
PATHS
  6
Continuous
 62
7
100
AcDbLine
 10
60.397000000000006
 20
-76.60300000000004
 30
0.0
 11
60.397000000000006
 21
-71.39700000000002
 31
0.0
  0
LINE
  5
126
330
17
100
AcDbEntity
  8
PATHS
  6
Continuous
 62
7
100
AcDbLine
 10
60.397
 20
-71.39699999999999
 30
0.0
 11
56.428
 21
-71.39699999999999
 31
0.0
  0
LINE
  5
127
330
17
100
AcDbEntity
  8
PATHS
  6
Continuous
 62
7
100
AcDbLine
 10
56.428
 20
-71.39699999999999
 30
0.0
 11
56.428
 21
-64.60300000000001
 31
0.0
  0
LINE
  5
128
330
17
100
AcDbEntity
  8
PATHS
  6
Continuous
 62
7
100
AcDbLine
 10
56.42813938
 20
-64.60300000000001
 30
0.0
 11
60.39505304429719
 21
-64.60300000000001
 31
0.0
  0
LINE
  5
129
330
17
100
AcDbEntity
  8
PATHS
  6
Continuous
 62
7
100
AcDbLine
 10
60.397
 20
-64.60300000000004
 30
0.0
 11
60.397
 21
-56.778
 31
0.0
  0
ARC
  5
12A
330
17
100
AcDbEntity
  8
PATHS
  6
Continuous
 62
7
100
AcDbCircle
 10
59.397
 20
-56.778
 30
0.0
 40
1.0
100
AcDbArc
 50
0.0
 51
90.0
  0
LINE
  5
12B
330
17
100
AcDbEntity
  8
PATHS
  6
Continuous
 62
7
100
AcDbLine
 10
59.397
 20
-55.778
 30
0.0
 11
48.39887553601068
 21
-55.778
 31
0.0
  0
LINE
  5
12C
330
17
100
AcDbEntity
  8
PATHS
  6
Continuous
 62
7
100
AcDbLine
 10
48.397
 20
-55.778
 30
0.0
 11
48.397
 21
-52.603
 31
0.0
  0
LINE
  5
12D
330
17
100
AcDbEntity
  8
PATHS
  6
Continuous
 62
7
100
AcDbLine
 10
48.397
 20
-52.603
 30
0.0
 11
41.60313938
 21
-52.603
 31
0.0
  0
LINE
  5
12E
330
17
100
AcDbEntity
  8
PATHS
  6
Continuous
 62
7
100
AcDbLine
 10
41.603
 20
-52.603
 30
0.0
 11
41.603
 21
-55.778
 31
0.0
  0
LINE
  5
12F
330
17
100
AcDbEntity
  8
PATHS
  6
Continuous
 62
7
100
AcDbLine
 10
41.603
 20
-55.778
 30
0.0
 11
36.39890727593614
 21
-55.778
 31
0.0
  0
LINE
  5
130
330
17
100
AcDbEntity
  8
PATHS
  6
Continuous
 62
7
100
AcDbLine
 10
36.397
 20
-55.778
 30
0.0
 11
36.397
 21
-52.603
 31
0.0
  0
LINE
  5
131
330
17
100
AcDbEntity
  8
PATHS
  6
Continuous
 62
7
100
AcDbLine
 10
36.397
 20
-52.603
 30
0.0
 11
29.603139380000002
 21
-52.603
 31
0.0
  0
LINE
  5
132
330
17
100
AcDbEntity
  8
PATHS
  6
Continuous
 62
7
100
AcDbLine
 10
29.603
 20
-52.603
 30
0.0
 11
29.603
 21
-55.778
 31
0.0
  0
LINE
  5
133
330
17
100
AcDbEntity
  8
PATHS
  6
Continuous
 62
7
100
AcDbLine
 10
29.603
 20
-55.778
 30
0.0
 11
-29.600949886147706
 21
-55.778
 31
0.0
  0
LINE
  5
134
330
17
100
AcDbEntity
  8
PATHS
  6
Continuous
 62
7
100
AcDbLine
 10
-29.603
 20
-55.778
 30
0.0
 11
-29.603
 21
-52.603
 31
0.0
  0
LINE
  5
135
330
17
100
AcDbEntity
  8
PATHS
  6
Continuous
 62
7
100
AcDbLine
 10
-29.603
 20
-52.603
 30
0.0
 11
-36.39686062
 21
-52.603
 31
0.0
  0
LINE
  5
136
330
17
100
AcDbEntity
  8
PATHS
  6
Continuous
 62
7
100
AcDbLine
 10
-36.397
 20
-52.603
 30
0.0
 11
-36.397
 21
-55.778
 31
0.0
  0
LINE
  5
137
330
17
100
AcDbEntity
  8
PATHS
  6
Continuous
 62
7
100
AcDbLine
 10
-36.397
 20
-55.778
 30
0.0
 11
-41.60098162535889
 21
-55.778
 31
0.0
  0
LINE
  5
138
330
17
100
AcDbEntity
  8
PATHS
  6
Continuous
 62
7
100
AcDbLine
 10
-41.603
 20
-55.778
 30
0.0
 11
-41.603
 21
-52.603
 31
0.0
  0
LINE
  5
139
330
17
100
AcDbEntity
  8
PATHS
  6
Continuous
 62
7
100
AcDbLine
 10
-41.603
 20
-52.603
 30
0.0
 11
-48.39686062
 21
-52.603
 31
0.0
  0
LINE
  5
13A
330
17
100
AcDbEntity
  8
PATHS
  6
Continuous
 62
7
100
AcDbLine
 10
-48.397
 20
-52.603
 30
0.0
 11
-48.397
 21
-55.778
 31
0.0
  0
LINE
  5
13B
330
17
100
AcDbEntity
  8
PATHS
  6
Continuous
 62
7
100
AcDbLine
 10
-48.397000000000006
 20
-55.778
 30
0.0
 11
-59.397
 21
-55.778
 31
0.0
  0
ARC
  5
13C
330
17
100
AcDbEntity
  8
PATHS
  6
Continuous
 62
7
100
AcDbCircle
 10
-59.397
 20
-56.778
 30
0.0
 40
1.0
100
AcDbArc
 50
90.0
 51
179.89435827512463
  0
LINE
  5
13D
330
17
100
AcDbEntity
  8
PATHS
  6
Continuous
 62
7
100
AcDbLine
 10
-60.397
 20
-56.778
 30
0.0
 11
-60.397
 21
-64.603
 31
0.0
  0
LINE
  5
13E
330
17
100
AcDbEntity
  8
PATHS
  6
Continuous
 62
7
100
AcDbLine
 10
-60.397
 20
-64.60300000000001
 30
0.0
 11
-56.428
 21
-64.60300000000001
 31
0.0
  0
LINE
  5
13F
330
17
100
AcDbEntity
  8
PATHS
  6
Continuous
 62
7
100
AcDbLine
 10
-56.428
 20
-64.60300000000001
 30
0.0
 11
-56.428
 21
-71.39699999999999
 31
0.0
  0
LINE
  5
140
330
17
100
AcDbEntity
  8
PATHS
  6
Continuous
 62
7
100
AcDbLine
 10
-56.428
 20
-71.39699999999999
 30
0.0
 11
-60.39491020639827
 21
-71.39699999999999
 31
0.0
  0
LINE
  5
141
330
17
100
AcDbEntity
  8
PATHS
  6
Continuous
 62
7
100
AcDbLine
 10
-60.397
 20
-71.39699999999999
 30
0.0
 11
-60.397
 21
-76.60299999999998
 31
0.0
  0
LINE
  5
142
330
17
100
AcDbEntity
  8
PATHS
  6
Continuous
 62
7
100
AcDbLine
 10
-60.397
 20
-76.603
 30
0.0
 11
-56.428
 21
-76.603
 31
0.0
  0
LINE
  5
143
330
17
100
AcDbEntity
  8
PATHS
  6
Continuous
 62
7
100
AcDbLine
 10
-56.428
 20
-76.603
 30
0.0
 11
-56.428
 21
-83.397
 31
0.0
  0
LINE
  5
144
330
17
100
AcDbEntity
  8
PATHS
  6
Continuous
 62
7
100
AcDbLine
 10
-56.428
 20
-83.397
 30
0.0
 11
-60.394870526847235
 21
-83.397
 31
0.0
  0
LINE
  5
145
330
17
100
AcDbEntity
  8
PATHS
  6
Continuous
 62
7
100
AcDbLine
 10
-60.397
 20
-83.39699999999999
 30
0.0
 11
-60.397000000000006
 21
-92.60300000000004
 31
0.0
  0
LINE
  5
146
330
17
100
AcDbEntity
  8
PATHS
  6
Continuous
 62
7
100
AcDbLine
 10
-60.397
 20
-92.603
 30
0.0
 11
-56.428
 21
-92.603
 31
0.0
  0
LINE
  5
147
330
17
100
AcDbEntity
  8
PATHS
  6
Continuous
 62
7
100
AcDbLine
 10
-56.428
 20
-92.603
 30
0.0
 11
-56.428
 21
-99.397
 31
0.0
  0
LINE
  5
148
330
17
100
AcDbEntity
  8
PATHS
  6
Continuous
 62
7
100
AcDbLine
 10
-56.42813938
 20
-99.397
 30
0.0
 11
-60.394727693216176
 21
-99.397
 31
0.0
  0
LINE
  5
149
330
17
100
AcDbEntity
  8
PATHS
  6
Continuous
 62
7
100
AcDbLine
 10
-60.397000000000006
 20
-99.39700000000002
 30
0.0
 11
-60.397
 21
-104.60300000000004
 31
0.0
  0
LINE
  5
14A
330
17
100
AcDbEntity
  8
PATHS
  6
Continuous
 62
7
100
AcDbLine
 10
-60.397
 20
-104.60300000000001
 30
0.0
 11
-56.428
 21
-104.60300000000001
 31
0.0
  0
LINE
  5
14B
330
17
100
AcDbEntity
  8
PATHS
  6
Continuous
 62
7
100
AcDbLine
 10
-56.428
 20
-104.60300000000001
 30
0.0
 11
-56.428
 21
-111.39699999999999
 31
0.0
  0
LINE
  5
14C
330
17
100
AcDbEntity
  8
PATHS
  6
Continuous
 62
7
100
AcDbLine
 10
-56.42813938
 20
-111.39699999999999
 30
0.0
 11
-60.39476737135613
 21
-111.39699999999999
 31
0.0
  0
LINE
  5
14D
330
17
100
AcDbEntity
  8
PATHS
  6
Continuous
 62
7
100
AcDbLine
 10
-60.397
 20
-111.39700000000002
 30
0.0
 11
-60.397
 21
-119.22200000000001
 31
0.0
  0
ARC
  5
14E
330
17
100
AcDbEntity
  8
PATHS
  6
Continuous
 62
7
100
AcDbCircle
 10
-59.397
 20
-119.22200000000001
 30
0.0
 40
1.0
100
AcDbArc
 50
180.0
 51
270.0
  0
LINE
  5
14F
330
17
100
AcDbEntity
  8
PATHS
  6
Continuous
 62
7
100
AcDbLine
 10
-59.397
 20
-120.22200000000001
 30
0.0
 11
-48.39916121180848
 21
-120.22200000000001
 31
0.0
  0
LINE
  5
150
330
17
100
AcDbEntity
  8
PATHS
  6
Continuous
 62
7
100
AcDbLine
 10
-48.397
 20
-120.22200000000001
 30
0.0
 11
-48.397
 21
-123.39699999999999
 31
0.0
  0
LINE
  5
151
330
17
100
AcDbEntity
  8
PATHS
  6
Continuous
 62
7
100
AcDbLine
 10
-48.397
 20
-123.39699999999999
 30
0.0
 11
-41.60313938
 21
-123.39699999999999
 31
0.0
  0
LINE
  5
152
330
17
100
AcDbEntity
  8
PATHS
  6
Continuous
 62
7
100
AcDbLine
 10
-41.603
 20
-123.39699999999999
 30
0.0
 11
-41.603
 21
-120.22200000000001
 31
0.0
  0
LINE
  5
153
330
17
100
AcDbEntity
  8
PATHS
  6
Continuous
 62
7
100
AcDbLine
 10
-41.603
 20
-120.22200000000001
 30
0.0
 11
-36.39919295030556
 21
-120.22200000000001
 31
0.0
  0
LINE
  5
154
330
17
100
AcDbEntity
  8
PATHS
  6
Continuous
 62
7
100
AcDbLine
 10
-36.397
 20
-120.22200000000001
 30
0.0
 11
-36.397
 21
-123.39699999999999
 31
0.0
  0
LINE
  5
155
330
17
100
AcDbEntity
  8
PATHS
  6
Continuous
 62
7
100
AcDbLine
 10
-36.397
 20
-123.39699999999999
 30
0.0
 11
-29.603139380000002
 21
-123.39699999999999
 31
0.0
  0
LINE
  5
156
330
17
100
AcDbEntity
  8
PATHS
  6
Continuous
 62
7
100
AcDbLine
 10
-29.603
 20
-123.39699999999999
 30
0.0
 11
-29.603
 21
-120.22200000000001
 31
0.0
  0
LINE
  5
157
330
17
100
AcDbEntity
  8
PATHS
  6
Continuous
 62
7
100
AcDbLine
 10
-29.603
 20
-120.22200000000001
 30
0.0
 11
29.600664217491726
 21
-120.22200000000001
 31
0.0
  0
LINE
  5
158
330
17
100
AcDbEntity
  8
PATHS
  6
Continuous
 62
7
100
AcDbLine
 10
29.603
 20
-120.22200000000001
 30
0.0
 11
29.603
 21
-123.39699999999999
 31
0.0
  0
LINE
  5
159
330
17
100
AcDbEntity
  8
PATHS
  6
Continuous
 62
7
100
AcDbLine
 10
29.603
 20
-123.39699999999999
 30
0.0
 11
36.39686062
 21
-123.39699999999999
 31
0.0
  0
LINE
  5
15A
330
17
100
AcDbEntity
  8
PATHS
  6
Continuous
 62
7
100
AcDbLine
 10
36.397
 20
-123.39699999999999
 30
0.0
 11
36.397
 21
-120.22200000000001
 31
0.0
  0
LINE
  5
15B
330
17
100
AcDbEntity
  8
PATHS
  6
Continuous
 62
7
100
AcDbLine
 10
36.39699999999999
 20
-120.22200000000001
 30
0.0
 11
41.6006959552746
 21
-120.22200000000001
 31
0.0
  0
LINE
  5
15C
330
17
100
AcDbEntity
  8
PATHS
  6
Continuous
 62
7
100
AcDbLine
 10
41.603
 20
-120.22200000000001
 30
0.0
 11
41.603
 21
-123.39699999999999
 31
0.0
  0
LINE
  5
15D
330
17
100
AcDbEntity
  8
PATHS
  6
Continuous
 62
7
100
AcDbLine
 10
41.603
 20
-123.39699999999999
 30
0.0
 11
48.39686062
 21
-123.39699999999999
 31
0.0
  0
LINE
  5
15E
330
17
100
AcDbEntity
  8
PATHS
  6
Continuous
 62
7
100
AcDbLine
 10
48.397
 20
-123.39699999999999
 30
0.0
 11
48.397
 21
-120.22200000000001
 31
0.0
  0
LINE
  5
15F
330
17
100
AcDbEntity
  8
PATHS
  6
Continuous
 62
7
100
AcDbLine
 10
48.397000000000006
 20
-120.22200000000001
 30
0.0
 11
59.397
 21
-120.22200000000001
 31
0.0
  0
ARC
  5
160
330
17
100
AcDbEntity
  8
PATHS
  6
Continuous
 62
7
100
AcDbCircle
 10
59.397
 20
-119.22200000000001
 30
0.0
 40
1.0
100
AcDbArc
 50
270.0
 51
0.0
  0
LINE
  5
161
330
17
100
AcDbEntity
  8
PATHS
  6
Continuous
 62
7
100
AcDbLine
 10
60.397
 20
-119.22200000000001
 30
0.0
 11
60.397000000000006
 21
-111.39699999999995
 31
0.0
  0
LINE
  5
162
330
17
100
AcDbEntity
  8
PATHS
  6
Continuous
 62
7
100
AcDbLine
 10
60.397
 20
-111.39699999999999
 30
0.0
 11
56.428
 21
-111.39699999999999
 31
0.0
  0
LINE
  5
163
330
17
100
AcDbEntity
  8
PATHS
  6
Continuous
 62
7
100
AcDbLine
 10
56.428
 20
-111.39699999999999
 30
0.0
 11
56.428
 21
-104.60300000000001
 31
0.0
  0
LINE
  5
164
330
17
100
AcDbEntity
  8
PATHS
  6
Continuous
 62
7
100
AcDbLine
 10
56.428
 20
-104.60300000000001
 30
0.0
 11
60.394624539170664
 21
-104.60300000000001
 31
0.0
  0
LINE
  5
165
330
17
100
AcDbEntity
  8
PATHS
  6
Continuous
 62
7
100
AcDbLine
 10
60.397
 20
-104.603
 30
0.0
 11
60.397
 21
-99.397
 31
0.0
  0
LINE
  5
166
330
17
100
AcDbEntity
  8
PATHS
  6
Continuous
 62
7
100
AcDbLine
 10
60.397
 20
-99.397
 30
0.0
 11
56.428
 21
-99.397
 31
0.0
  0
LINE
  5
167
330
17
100
AcDbEntity
  8
PATHS
  6
Continuous
 62
7
100
AcDbLine
 10
56.428
 20
-99.397
 30
0.0
 11
56.428
 21
-92.603
 31
0.0
  0
LINE
  5
168
330
17
100
AcDbEntity
  8
PATHS
  6
Continuous
 62
7
100
AcDbLine
 10
56.428
 20
-92.603
 30
0.0
 11
60.397000000000006
 21
-92.603
 31
0.0
  0
LINE
  5
169
330
17
100
AcDbEntity
  8
PATHS
  6
Continuous
 62
7
100
AcDbLine
 10
60.397
 20
83.397
 30
0.0
 11
60.397000000000006
 21
92.60300000000004
 31
0.0
  0
LINE
  5
16A
330
17
100
AcDbEntity
  8
PATHS
  6
Continuous
 62
7
100
AcDbLine
 10
60.397000000000006
 20
92.603
 30
0.0
 11
56.428
 21
92.603
 31
0.0
  0
LINE
  5
16B
330
17
100
AcDbEntity
  8
PATHS
  6
Continuous
 62
7
100
AcDbLine
 10
56.428
 20
92.603
 30
0.0
 11
56.428
 21
99.397
 31
0.0
  0
LINE
  5
16C
330
17
100
AcDbEntity
  8
PATHS
  6
Continuous
 62
7
100
AcDbLine
 10
56.42813938
 20
99.397
 30
0.0
 11
60.39501336472888
 21
99.397
 31
0.0
  0
LINE
  5
16D
330
17
100
AcDbEntity
  8
PATHS
  6
Continuous
 62
7
100
AcDbLine
 10
60.397000000000006
 20
99.39699999999996
 30
0.0
 11
60.397000000000006
 21
104.60299999999998
 31
0.0
  0
LINE
  5
16E
330
17
100
AcDbEntity
  8
PATHS
  6
Continuous
 62
7
100
AcDbLine
 10
60.397
 20
104.60300000000001
 30
0.0
 11
56.428
 21
104.60300000000001
 31
0.0
  0
LINE
  5
16F
330
17
100
AcDbEntity
  8
PATHS
  6
Continuous
 62
7
100
AcDbLine
 10
56.428
 20
104.60300000000001
 30
0.0
 11
56.428
 21
111.39699999999999
 31
0.0
  0
LINE
  5
170
330
17
100
AcDbEntity
  8
PATHS
  6
Continuous
 62
7
100
AcDbLine
 10
56.42813938
 20
111.39699999999999
 30
0.0
 11
60.39505304429719
 21
111.39699999999999
 31
0.0
  0
LINE
  5
171
330
17
100
AcDbEntity
  8
PATHS
  6
Continuous
 62
7
100
AcDbLine
 10
60.397
 20
111.39699999999996
 30
0.0
 11
60.397
 21
119.22200000000001
 31
0.0
  0
ARC
  5
172
330
17
100
AcDbEntity
  8
PATHS
  6
Continuous
 62
7
100
AcDbCircle
 10
59.397
 20
119.22200000000001
 30
0.0
 40
1.0
100
AcDbArc
 50
0.0
 51
90.0
  0
LINE
  5
173
330
17
100
AcDbEntity
  8
PATHS
  6
Continuous
 62
7
100
AcDbLine
 10
59.397
 20
120.22200000000001
 30
0.0
 11
48.39887553601068
 21
120.22200000000001
 31
0.0
  0
LINE
  5
174
330
17
100
AcDbEntity
  8
PATHS
  6
Continuous
 62
7
100
AcDbLine
 10
48.397
 20
120.22200000000001
 30
0.0
 11
48.397
 21
123.39699999999999
 31
0.0
  0
LINE
  5
175
330
17
100
AcDbEntity
  8
PATHS
  6
Continuous
 62
7
100
AcDbLine
 10
48.397
 20
123.39699999999999
 30
0.0
 11
41.60313938
 21
123.39699999999999
 31
0.0
  0
LINE
  5
176
330
17
100
AcDbEntity
  8
PATHS
  6
Continuous
 62
7
100
AcDbLine
 10
41.603
 20
123.39699999999999
 30
0.0
 11
41.603
 21
120.22200000000001
 31
0.0
  0
LINE
  5
177
330
17
100
AcDbEntity
  8
PATHS
  6
Continuous
 62
7
100
AcDbLine
 10
41.603
 20
120.22200000000001
 30
0.0
 11
36.39890727593614
 21
120.22200000000001
 31
0.0
  0
LINE
  5
178
330
17
100
AcDbEntity
  8
PATHS
  6
Continuous
 62
7
100
AcDbLine
 10
36.397
 20
120.22200000000001
 30
0.0
 11
36.397
 21
123.39699999999999
 31
0.0
  0
LINE
  5
179
330
17
100
AcDbEntity
  8
PATHS
  6
Continuous
 62
7
100
AcDbLine
 10
36.397
 20
123.39699999999999
 30
0.0
 11
29.603139380000002
 21
123.39699999999999
 31
0.0
  0
LINE
  5
17A
330
17
100
AcDbEntity
  8
PATHS
  6
Continuous
 62
7
100
AcDbLine
 10
29.603
 20
123.39699999999999
 30
0.0
 11
29.603
 21
120.22200000000001
 31
0.0
  0
LINE
  5
17B
330
17
100
AcDbEntity
  8
PATHS
  6
Continuous
 62
7
100
AcDbLine
 10
29.603
 20
120.22200000000001
 30
0.0
 11
-29.600949886147706
 21
120.22200000000001
 31
0.0
  0
LINE
  5
17C
330
17
100
AcDbEntity
  8
PATHS
  6
Continuous
 62
7
100
AcDbLine
 10
-29.603
 20
120.22200000000001
 30
0.0
 11
-29.603
 21
123.39699999999999
 31
0.0
  0
LINE
  5
17D
330
17
100
AcDbEntity
  8
PATHS
  6
Continuous
 62
7
100
AcDbLine
 10
-29.603
 20
123.39699999999999
 30
0.0
 11
-36.39686062
 21
123.39699999999999
 31
0.0
  0
LINE
  5
17E
330
17
100
AcDbEntity
  8
PATHS
  6
Continuous
 62
7
100
AcDbLine
 10
-36.397
 20
123.39699999999999
 30
0.0
 11
-36.397
 21
120.22200000000001
 31
0.0
  0
LINE
  5
17F
330
17
100
AcDbEntity
  8
PATHS
  6
Continuous
 62
7
100
AcDbLine
 10
-36.397
 20
120.22200000000001
 30
0.0
 11
-41.60098162535889
 21
120.22200000000001
 31
0.0
  0
LINE
  5
180
330
17
100
AcDbEntity
  8
PATHS
  6
Continuous
 62
7
100
AcDbLine
 10
-41.603
 20
120.22200000000001
 30
0.0
 11
-41.603
 21
123.39699999999999
 31
0.0
  0
LINE
  5
181
330
17
100
AcDbEntity
  8
PATHS
  6
Continuous
 62
7
100
AcDbLine
 10
-41.603
 20
123.39699999999999
 30
0.0
 11
-48.39686062
 21
123.39699999999999
 31
0.0
  0
LINE
  5
182
330
17
100
AcDbEntity
  8
PATHS
  6
Continuous
 62
7
100
AcDbLine
 10
-48.397
 20
123.39699999999999
 30
0.0
 11
-48.397
 21
120.22200000000001
 31
0.0
  0
LINE
  5
183
330
17
100
AcDbEntity
  8
PATHS
  6
Continuous
 62
7
100
AcDbLine
 10
-48.397000000000006
 20
120.22200000000001
 30
0.0
 11
-59.397
 21
120.22200000000001
 31
0.0
  0
ARC
  5
184
330
17
100
AcDbEntity
  8
PATHS
  6
Continuous
 62
7
100
AcDbCircle
 10
-59.397
 20
119.22200000000001
 30
0.0
 40
1.0
100
AcDbArc
 50
90.0
 51
179.89435827512463
  0
LINE
  5
185
330
17
100
AcDbEntity
  8
PATHS
  6
Continuous
 62
7
100
AcDbLine
 10
-60.397
 20
119.22200000000001
 30
0.0
 11
-60.397
 21
111.397
 31
0.0
  0
LINE
  5
186
330
17
100
AcDbEntity
  8
PATHS
  6
Continuous
 62
7
100
AcDbLine
 10
-60.397
 20
111.39699999999999
 30
0.0
 11
-56.428
 21
111.39699999999999
 31
0.0
  0
LINE
  5
187
330
17
100
AcDbEntity
  8
PATHS
  6
Continuous
 62
7
100
AcDbLine
 10
-56.428
 20
111.39699999999999
 30
0.0
 11
-56.428
 21
104.60300000000001
 31
0.0
  0
LINE
  5
188
330
17
100
AcDbEntity
  8
PATHS
  6
Continuous
 62
7
100
AcDbLine
 10
-56.428
 20
104.60300000000001
 30
0.0
 11
-60.39491020639827
 21
104.60300000000001
 31
0.0
  0
LINE
  5
189
330
17
100
AcDbEntity
  8
PATHS
  6
Continuous
 62
7
100
AcDbLine
 10
-60.397
 20
104.60300000000001
 30
0.0
 11
-60.397
 21
99.39700000000002
 31
0.0
  0
LINE
  5
18A
330
17
100
AcDbEntity
  8
PATHS
  6
Continuous
 62
7
100
AcDbLine
 10
-60.397
 20
99.397
 30
0.0
 11
-56.428
 21
99.397
 31
0.0
  0
LINE
  5
18B
330
17
100
AcDbEntity
  8
PATHS
  6
Continuous
 62
7
100
AcDbLine
 10
-56.428
 20
99.397
 30
0.0
 11
-56.428
 21
92.603
 31
0.0
  0
LINE
  5
18C
330
17
100
AcDbEntity
  8
PATHS
  6
Continuous
 62
7
100
AcDbLine
 10
-56.428
 20
92.603
 30
0.0
 11
-60.394870526847235
 21
92.603
 31
0.0
  0
LINE
  5
18D
330
17
100
AcDbEntity
  8
PATHS
  6
Continuous
 62
7
100
AcDbLine
 10
-60.397
 20
92.60300000000001
 30
0.0
 11
-60.397000000000006
 21
83.39699999999996
 31
0.0
  0
LINE
  5
18E
330
17
100
AcDbEntity
  8
PATHS
  6
Continuous
 62
7
100
AcDbLine
 10
-60.397
 20
83.397
 30
0.0
 11
-56.428
 21
83.397
 31
0.0
  0
LINE
  5
18F
330
17
100
AcDbEntity
  8
PATHS
  6
Continuous
 62
7
100
AcDbLine
 10
-56.428
 20
83.397
 30
0.0
 11
-56.428
 21
76.603
 31
0.0
  0
LINE
  5
190
330
17
100
AcDbEntity
  8
PATHS
  6
Continuous
 62
7
100
AcDbLine
 10
-56.42813938
 20
76.603
 30
0.0
 11
-60.394727693216176
 21
76.603
 31
0.0
  0
LINE
  5
191
330
17
100
AcDbEntity
  8
PATHS
  6
Continuous
 62
7
100
AcDbLine
 10
-60.397000000000006
 20
76.60299999999998
 30
0.0
 11
-60.397
 21
71.39699999999996
 31
0.0
  0
LINE
  5
192
330
17
100
AcDbEntity
  8
PATHS
  6
Continuous
 62
7
100
AcDbLine
 10
-60.397
 20
71.39699999999999
 30
0.0
 11
-56.428
 21
71.39699999999999
 31
0.0
  0
LINE
  5
193
330
17
100
AcDbEntity
  8
PATHS
  6
Continuous
 62
7
100
AcDbLine
 10
-56.428
 20
71.39699999999999
 30
0.0
 11
-56.428
 21
64.60300000000001
 31
0.0
  0
LINE
  5
194
330
17
100
AcDbEntity
  8
PATHS
  6
Continuous
 62
7
100
AcDbLine
 10
-56.42813938
 20
64.60300000000001
 30
0.0
 11
-60.39476737135613
 21
64.60300000000001
 31
0.0
  0
LINE
  5
195
330
17
100
AcDbEntity
  8
PATHS
  6
Continuous
 62
7
100
AcDbLine
 10
-60.397
 20
64.60299999999998
 30
0.0
 11
-60.397
 21
56.778
 31
0.0
  0
ARC
  5
196
330
17
100
AcDbEntity
  8
PATHS
  6
Continuous
 62
7
100
AcDbCircle
 10
-59.397
 20
56.778
 30
0.0
 40
1.0
100
AcDbArc
 50
180.0
 51
270.0
  0
LINE
  5
197
330
17
100
AcDbEntity
  8
PATHS
  6
Continuous
 62
7
100
AcDbLine
 10
-59.397
 20
55.778
 30
0.0
 11
-48.39916121180848
 21
55.778
 31
0.0
  0
LINE
  5
198
330
17
100
AcDbEntity
  8
PATHS
  6
Continuous
 62
7
100
AcDbLine
 10
-48.397
 20
55.778
 30
0.0
 11
-48.397
 21
52.603
 31
0.0
  0
LINE
  5
199
330
17
100
AcDbEntity
  8
PATHS
  6
Continuous
 62
7
100
AcDbLine
 10
-48.397
 20
52.603
 30
0.0
 11
-41.60313938
 21
52.603
 31
0.0
  0
LINE
  5
19A
330
17
100
AcDbEntity
  8
PATHS
  6
Continuous
 62
7
100
AcDbLine
 10
-41.603
 20
52.603
 30
0.0
 11
-41.603
 21
55.778
 31
0.0
  0
LINE
  5
19B
330
17
100
AcDbEntity
  8
PATHS
  6
Continuous
 62
7
100
AcDbLine
 10
-41.603
 20
55.778
 30
0.0
 11
-36.39919295030556
 21
55.778
 31
0.0
  0
LINE
  5
19C
330
17
100
AcDbEntity
  8
PATHS
  6
Continuous
 62
7
100
AcDbLine
 10
-36.397
 20
55.778
 30
0.0
 11
-36.397
 21
52.603
 31
0.0
  0
LINE
  5
19D
330
17
100
AcDbEntity
  8
PATHS
  6
Continuous
 62
7
100
AcDbLine
 10
-36.397
 20
52.603
 30
0.0
 11
-29.603139380000002
 21
52.603
 31
0.0
  0
LINE
  5
19E
330
17
100
AcDbEntity
  8
PATHS
  6
Continuous
 62
7
100
AcDbLine
 10
-29.603
 20
52.603
 30
0.0
 11
-29.603
 21
55.778
 31
0.0
  0
LINE
  5
19F
330
17
100
AcDbEntity
  8
PATHS
  6
Continuous
 62
7
100
AcDbLine
 10
-29.603
 20
55.778
 30
0.0
 11
29.600664217491726
 21
55.778
 31
0.0
  0
LINE
  5
1A0
330
17
100
AcDbEntity
  8
PATHS
  6
Continuous
 62
7
100
AcDbLine
 10
29.603
 20
55.778
 30
0.0
 11
29.603
 21
52.603
 31
0.0
  0
LINE
  5
1A1
330
17
100
AcDbEntity
  8
PATHS
  6
Continuous
 62
7
100
AcDbLine
 10
29.603
 20
52.603
 30
0.0
 11
36.39686062
 21
52.603
 31
0.0
  0
LINE
  5
1A2
330
17
100
AcDbEntity
  8
PATHS
  6
Continuous
 62
7
100
AcDbLine
 10
36.397
 20
52.603
 30
0.0
 11
36.397
 21
55.778
 31
0.0
  0
LINE
  5
1A3
330
17
100
AcDbEntity
  8
PATHS
  6
Continuous
 62
7
100
AcDbLine
 10
36.39699999999999
 20
55.778
 30
0.0
 11
41.6006959552746
 21
55.778
 31
0.0
  0
LINE
  5
1A4
330
17
100
AcDbEntity
  8
PATHS
  6
Continuous
 62
7
100
AcDbLine
 10
41.603
 20
55.778
 30
0.0
 11
41.603
 21
52.603
 31
0.0
  0
LINE
  5
1A5
330
17
100
AcDbEntity
  8
PATHS
  6
Continuous
 62
7
100
AcDbLine
 10
41.603
 20
52.603
 30
0.0
 11
48.39686062
 21
52.603
 31
0.0
  0
LINE
  5
1A6
330
17
100
AcDbEntity
  8
PATHS
  6
Continuous
 62
7
100
AcDbLine
 10
48.397
 20
52.603
 30
0.0
 11
48.397
 21
55.778
 31
0.0
  0
LINE
  5
1A7
330
17
100
AcDbEntity
  8
PATHS
  6
Continuous
 62
7
100
AcDbLine
 10
48.397000000000006
 20
55.778
 30
0.0
 11
59.397
 21
55.778
 31
0.0
  0
ARC
  5
1A8
330
17
100
AcDbEntity
  8
PATHS
  6
Continuous
 62
7
100
AcDbCircle
 10
59.397
 20
56.778
 30
0.0
 40
1.0
100
AcDbArc
 50
270.0
 51
0.0
  0
LINE
  5
1A9
330
17
100
AcDbEntity
  8
PATHS
  6
Continuous
 62
7
100
AcDbLine
 10
60.397
 20
56.778
 30
0.0
 11
60.397000000000006
 21
64.60300000000005
 31
0.0
  0
LINE
  5
1AA
330
17
100
AcDbEntity
  8
PATHS
  6
Continuous
 62
7
100
AcDbLine
 10
60.397
 20
64.60300000000001
 30
0.0
 11
56.428
 21
64.60300000000001
 31
0.0
  0
LINE
  5
1AB
330
17
100
AcDbEntity
  8
PATHS
  6
Continuous
 62
7
100
AcDbLine
 10
56.428
 20
64.60300000000001
 30
0.0
 11
56.428
 21
71.39699999999999
 31
0.0
  0
LINE
  5
1AC
330
17
100
AcDbEntity
  8
PATHS
  6
Continuous
 62
7
100
AcDbLine
 10
56.428
 20
71.39699999999999
 30
0.0
 11
60.394624539170664
 21
71.39699999999999
 31
0.0
  0
LINE
  5
1AD
330
17
100
AcDbEntity
  8
PATHS
  6
Continuous
 62
7
100
AcDbLine
 10
60.397
 20
71.397
 30
0.0
 11
60.397
 21
76.603
 31
0.0
  0
LINE
  5
1AE
330
17
100
AcDbEntity
  8
PATHS
  6
Continuous
 62
7
100
AcDbLine
 10
60.397
 20
76.603
 30
0.0
 11
56.428
 21
76.603
 31
0.0
  0
LINE
  5
1AF
330
17
100
AcDbEntity
  8
PATHS
  6
Continuous
 62
7
100
AcDbLine
 10
56.428
 20
76.603
 30
0.0
 11
56.428
 21
83.397
 31
0.0
  0
LINE
  5
1B0
330
17
100
AcDbEntity
  8
PATHS
  6
Continuous
 62
7
100
AcDbLine
 10
56.428
 20
83.397
 30
0.0
 11
60.397000000000006
 21
83.397
 31
0.0
  0
TEXT
  5
1B1
330
17
100
AcDbEntity
  8
DOCUMENTATION
 62
2
100
AcDbText
 10
0.0
 20
-88.0
 30
0.0
 40
6.0
  1
front
 72
1
 11
0.0
 21
-88.0
 31
0.0
100
AcDbText
  0
TEXT
  5
1B2
330
17
100
AcDbEntity
  8
DOCUMENTATION
 62
2
100
AcDbText
 10
0.0
 20
88.0
 30
0.0
 40
6.0
  1
back
 72
1
 11
0.0
 21
88.0
 31
0.0
100
AcDbText
  0
LINE
  5
1B3
330
17
100
AcDbEntity
  8
PATHS
  6
Continuous
 62
7
100
AcDbLine
 10
-93.10300000000001
 20
42.222
 30
0.0
 11
-93.10300000000001
 21
45.396860620000005
 31
0.0
  0
LINE
  5
1B4
330
17
100
AcDbEntity
  8
PATHS
  6
Continuous
 62
7
100
AcDbLine
 10
-93.10300000000001
 20
45.397000000000006
 30
0.0
 11
-99.897
 21
45.397000000000006
 31
0.0
  0
LINE
  5
1B5
330
17
100
AcDbEntity
  8
PATHS
  6
Continuous
 62
7
100
AcDbLine
 10
-99.897
 20
45.397000000000006
 30
0.0
 11
-99.897
 21
42.222
 31
0.0
  0
LINE
  5
1B6
330
17
100
AcDbEntity
  8
PATHS
  6
Continuous
 62
7
100
AcDbLine
 10
-99.89700000000002
 20
42.222
 30
0.0
 11
-109.10139273602547
 21
42.222
 31
0.0
  0
LINE
  5
1B7
330
17
100
AcDbEntity
  8
PATHS
  6
Continuous
 62
7
100
AcDbLine
 10
-109.10300000000001
 20
42.222
 30
0.0
 11
-109.10300000000001
 21
45.397000000000006
 31
0.0
  0
LINE
  5
1B8
330
17
100
AcDbEntity
  8
PATHS
  6
Continuous
 62
7
100
AcDbLine
 10
-109.10300000000001
 20
45.397000000000006
 30
0.0
 11
-115.897
 21
45.397000000000006
 31
0.0
  0
LINE
  5
1B9
330
17
100
AcDbEntity
  8
PATHS
  6
Continuous
 62
7
100
AcDbLine
 10
-115.897
 20
45.397000000000006
 30
0.0
 11
-115.89700000000002
 21
42.222
 31
0.0
  0
LINE
  5
1BA
330
17
100
AcDbEntity
  8
PATHS
  6
Continuous
 62
7
100
AcDbLine
 10
-115.89700000000002
 20
42.22200000000001
 30
0.0
 11
-121.10142447814783
 21
42.222
 31
0.0
  0
LINE
  5
1BB
330
17
100
AcDbEntity
  8
PATHS
  6
Continuous
 62
7
100
AcDbLine
 10
-121.10300000000001
 20
42.222
 30
0.0
 11
-121.10300000000001
 21
45.397000000000006
 31
0.0
  0
LINE
  5
1BC
330
17
100
AcDbEntity
  8
PATHS
  6
Continuous
 62
7
100
AcDbLine
 10
-121.10300000000001
 20
45.397000000000006
 30
0.0
 11
-127.897
 21
45.397000000000006
 31
0.0
  0
LINE
  5
1BD
330
17
100
AcDbEntity
  8
PATHS
  6
Continuous
 62
7
100
AcDbLine
 10
-127.897
 20
45.397000000000006
 30
0.0
 11
-127.897
 21
42.222
 31
0.0
  0
LINE
  5
1BE
330
17
100
AcDbEntity
  8
PATHS
  6
Continuous
 62
7
100
AcDbLine
 10
-127.89700000000002
 20
42.222
 30
0.0
 11
-135.722
 21
42.222
 31
0.0
  0
ARC
  5
1BF
330
17
100
AcDbEntity
  8
PATHS
  6
Continuous
 62
7
100
AcDbCircle
 10
-135.722
 20
41.222
 30
0.0
 40
1.0
100
AcDbArc
 50
90.0
 51
180.0
  0
LINE
  5
1C0
330
17
100
AcDbEntity
  8
PATHS
  6
Continuous
 62
7
100
AcDbLine
 10
-136.722
 20
41.222
 30
0.0
 11
-136.722
 21
33.398512037828176
 31
0.0
  0
LINE
  5
1C1
330
17
100
AcDbEntity
  8
PATHS
  6
Continuous
 62
7
100
AcDbLine
 10
-136.722
 20
33.397
 30
0.0
 11
-139.89700000000002
 21
33.397
 31
0.0
  0
LINE
  5
1C2
330
17
100
AcDbEntity
  8
PATHS
  6
Continuous
 62
7
100
AcDbLine
 10
-139.89700000000002
 20
33.397
 30
0.0
 11
-139.89700000000002
 21
26.603139380000005
 31
0.0
  0
LINE
  5
1C3
330
17
100
AcDbEntity
  8
PATHS
  6
Continuous
 62
7
100
AcDbLine
 10
-139.89700000000002
 20
26.603000000000005
 30
0.0
 11
-136.722
 21
26.603
 31
0.0
  0
LINE
  5
1C4
330
17
100
AcDbEntity
  8
PATHS
  6
Continuous
 62
7
100
AcDbLine
 10
-136.722
 20
26.602999999999987
 30
0.0
 11
-136.722
 21
21.398543779571085
 31
0.0
  0
LINE
  5
1C5
330
17
100
AcDbEntity
  8
PATHS
  6
Continuous
 62
7
100
AcDbLine
 10
-136.722
 20
21.397
 30
0.0
 11
-139.89700000000002
 21
21.397000000000002
 31
0.0
  0
LINE
  5
1C6
330
17
100
AcDbEntity
  8
PATHS
  6
Continuous
 62
7
100
AcDbLine
 10
-139.89700000000002
 20
21.397000000000002
 30
0.0
 11
-139.89700000000002
 21
14.603139380000002
 31
0.0
  0
LINE
  5
1C7
330
17
100
AcDbEntity
  8
PATHS
  6
Continuous
 62
7
100
AcDbLine
 10
-139.89700000000002
 20
14.603000000000002
 30
0.0
 11
-136.722
 21
14.603000000000002
 31
0.0
  0
LINE
  5
1C8
330
17
100
AcDbEntity
  8
PATHS
  6
Continuous
 62
7
100
AcDbLine
 10
-136.722
 20
14.603000000000005
 30
0.0
 11
-136.722
 21
-14.601329253650595
 31
0.0
  0
LINE
  5
1C9
330
17
100
AcDbEntity
  8
PATHS
  6
Continuous
 62
7
100
AcDbLine
 10
-136.72200000000004
 20
-14.602999999999998
 30
0.0
 11
-139.89700000000002
 21
-14.602999999999998
 31
0.0
  0
LINE
  5
1CA
330
17
100
AcDbEntity
  8
PATHS
  6
Continuous
 62
7
100
AcDbLine
 10
-139.89700000000002
 20
-14.602999999999998
 30
0.0
 11
-139.89700000000002
 21
-21.396860619999995
 31
0.0
  0
LINE
  5
1CB
330
17
100
AcDbEntity
  8
PATHS
  6
Continuous
 62
7
100
AcDbLine
 10
-139.89700000000002
 20
-21.396999999999995
 30
0.0
 11
-136.72200000000004
 21
-21.397
 31
0.0
  0
LINE
  5
1CC
330
17
100
AcDbEntity
  8
PATHS
  6
Continuous
 62
7
100
AcDbLine
 10
-136.72200000000004
 20
-21.397
 30
0.0
 11
-136.72200000000004
 21
-26.6013609947587
 31
0.0
  0
LINE
  5
1CD
330
17
100
AcDbEntity
  8
PATHS
  6
Continuous
 62
7
100
AcDbLine
 10
-136.72200000000004
 20
-26.603
 30
0.0
 11
-139.89700000000002
 21
-26.602999999999998
 31
0.0
  0
LINE
  5
1CE
330
17
100
AcDbEntity
  8
PATHS
  6
Continuous
 62
7
100
AcDbLine
 10
-139.89700000000002
 20
-26.602999999999998
 30
0.0
 11
-139.89700000000002
 21
-33.39686062
 31
0.0
  0
LINE
  5
1CF
330
17
100
AcDbEntity
  8
PATHS
  6
Continuous
 62
7
100
AcDbLine
 10
-139.89700000000002
 20
-33.397
 30
0.0
 11
-136.72200000000004
 21
-33.397
 31
0.0
  0
LINE
  5
1D0
330
17
100
AcDbEntity
  8
PATHS
  6
Continuous
 62
7
100
AcDbLine
 10
-136.72200000000004
 20
-33.39700000000002
 30
0.0
 11
-136.72200000000004
 21
-41.222
 31
0.0
  0
ARC
  5
1D1
330
17
100
AcDbEntity
  8
PATHS
  6
Continuous
 62
7
100
AcDbCircle
 10
-135.722
 20
-41.222
 30
0.0
 40
1.0
100
AcDbArc
 50
180.0
 51
269.91518529097715
  0
LINE
  5
1D2
330
17
100
AcDbEntity
  8
PATHS
  6
Continuous
 62
7
100
AcDbLine
 10
-135.722
 20
-42.222
 30
0.0
 11
-127.89870248729885
 21
-42.22200000000001
 31
0.0
  0
LINE
  5
1D3
330
17
100
AcDbEntity
  8
PATHS
  6
Continuous
 62
7
100
AcDbLine
 10
-127.89700000000002
 20
-42.222
 30
0.0
 11
-127.89700000000002
 21
-45.396860620000005
 31
0.0
  0
LINE
  5
1D4
330
17
100
AcDbEntity
  8
PATHS
  6
Continuous
 62
7
100
AcDbLine
 10
-127.89700000000002
 20
-45.397000000000006
 30
0.0
 11
-121.10300000000002
 21
-45.397000000000006
 31
0.0
  0
LINE
  5
1D5
330
17
100
AcDbEntity
  8
PATHS
  6
Continuous
 62
7
100
AcDbLine
 10
-121.10300000000002
 20
-45.397000000000006
 30
0.0
 11
-121.10300000000002
 21
-42.222
 31
0.0
  0
LINE
  5
1D6
330
17
100
AcDbEntity
  8
PATHS
  6
Continuous
 62
7
100
AcDbLine
 10
-121.10300000000001
 20
-42.222
 30
0.0
 11
-115.89873422808947
 21
-42.22200000000001
 31
0.0
  0
LINE
  5
1D7
330
17
100
AcDbEntity
  8
PATHS
  6
Continuous
 62
7
100
AcDbLine
 10
-115.89700000000002
 20
-42.222
 30
0.0
 11
-115.89700000000002
 21
-45.396860620000005
 31
0.0
  0
LINE
  5
1D8
330
17
100
AcDbEntity
  8
PATHS
  6
Continuous
 62
7
100
AcDbLine
 10
-115.89700000000002
 20
-45.397000000000006
 30
0.0
 11
-109.10300000000002
 21
-45.397000000000006
 31
0.0
  0
LINE
  5
1D9
330
17
100
AcDbEntity
  8
PATHS
  6
Continuous
 62
7
100
AcDbLine
 10
-109.10300000000002
 20
-45.397000000000006
 30
0.0
 11
-109.10300000000002
 21
-42.222
 31
0.0
  0
LINE
  5
1DA
330
17
100
AcDbEntity
  8
PATHS
  6
Continuous
 62
7
100
AcDbLine
 10
-109.10300000000002
 20
-42.222
 30
0.0
 11
-99.89886119105887
 21
-42.222
 31
0.0
  0
LINE
  5
1DB
330
17
100
AcDbEntity
  8
PATHS
  6
Continuous
 62
7
100
AcDbLine
 10
-99.89700000000002
 20
-42.222
 30
0.0
 11
-99.89700000000002
 21
-45.397000000000006
 31
0.0
  0
LINE
  5
1DC
330
17
100
AcDbEntity
  8
PATHS
  6
Continuous
 62
7
100
AcDbLine
 10
-99.89700000000002
 20
-45.397000000000006
 30
0.0
 11
-93.10300000000002
 21
-45.397000000000006
 31
0.0
  0
LINE
  5
1DD
330
17
100
AcDbEntity
  8
PATHS
  6
Continuous
 62
7
100
AcDbLine
 10
-93.10300000000002
 20
-45.397000000000006
 30
0.0
 11
-93.10300000000001
 21
-42.222
 31
0.0
  0
LINE
  5
1DE
330
17
100
AcDbEntity
  8
PATHS
  6
Continuous
 62
7
100
AcDbLine
 10
-93.10300000000001
 20
-42.222
 30
0.0
 11
-87.89882945020616
 21
-42.222
 31
0.0
  0
LINE
  5
1DF
330
17
100
AcDbEntity
  8
PATHS
  6
Continuous
 62
7
100
AcDbLine
 10
-87.89700000000002
 20
-42.222
 30
0.0
 11
-87.89700000000002
 21
-45.397000000000006
 31
0.0
  0
LINE
  5
1E0
330
17
100
AcDbEntity
  8
PATHS
  6
Continuous
 62
7
100
AcDbLine
 10
-87.89700000000002
 20
-45.397000000000006
 30
0.0
 11
-81.10300000000002
 21
-45.397000000000006
 31
0.0
  0
LINE
  5
1E1
330
17
100
AcDbEntity
  8
PATHS
  6
Continuous
 62
7
100
AcDbLine
 10
-81.10300000000002
 20
-45.397000000000006
 30
0.0
 11
-81.10300000000002
 21
-42.222
 31
0.0
  0
LINE
  5
1E2
330
17
100
AcDbEntity
  8
PATHS
  6
Continuous
 62
7
100
AcDbLine
 10
-81.10300000000001
 20
-42.222
 30
0.0
 11
-73.27800000000002
 21
-42.222
 31
0.0
  0
ARC
  5
1E3
330
17
100
AcDbEntity
  8
PATHS
  6
Continuous
 62
7
100
AcDbCircle
 10
-73.27800000000002
 20
-41.222
 30
0.0
 40
1.0
100
AcDbArc
 50
270.0
 51
0.0
  0
LINE
  5
1E4
330
17
100
AcDbEntity
  8
PATHS
  6
Continuous
 62
7
100
AcDbLine
 10
-72.27800000000002
 20
-41.222
 30
0.0
 11
-72.27800000000002
 21
-33.39876596872143
 31
0.0
  0
LINE
  5
1E5
330
17
100
AcDbEntity
  8
PATHS
  6
Continuous
 62
7
100
AcDbLine
 10
-72.27800000000002
 20
-33.397
 30
0.0
 11
-69.10300000000001
 21
-33.397
 31
0.0
  0
LINE
  5
1E6
330
17
100
AcDbEntity
  8
PATHS
  6
Continuous
 62
7
100
AcDbLine
 10
-69.10300000000001
 20
-33.397
 30
0.0
 11
-69.10300000000001
 21
-26.603139380000005
 31
0.0
  0
LINE
  5
1E7
330
17
100
AcDbEntity
  8
PATHS
  6
Continuous
 62
7
100
AcDbLine
 10
-69.10300000000001
 20
-26.603000000000005
 30
0.0
 11
-72.27800000000002
 21
-26.603
 31
0.0
  0
LINE
  5
1E8
330
17
100
AcDbEntity
  8
PATHS
  6
Continuous
 62
7
100
AcDbLine
 10
-72.27800000000002
 20
-26.603000000000016
 30
0.0
 11
-72.27800000000002
 21
-21.398797709194668
 31
0.0
  0
LINE
  5
1E9
330
17
100
AcDbEntity
  8
PATHS
  6
Continuous
 62
7
100
AcDbLine
 10
-72.27800000000002
 20
-21.397
 30
0.0
 11
-69.10300000000001
 21
-21.397000000000002
 31
0.0
  0
LINE
  5
1EA
330
17
100
AcDbEntity
  8
PATHS
  6
Continuous
 62
7
100
AcDbLine
 10
-69.10300000000001
 20
-21.397000000000002
 30
0.0
 11
-69.10300000000001
 21
-14.603139380000002
 31
0.0
  0
LINE
  5
1EB
330
17
100
AcDbEntity
  8
PATHS
  6
Continuous
 62
7
100
AcDbLine
 10
-69.10300000000001
 20
-14.603000000000002
 30
0.0
 11
-72.27800000000002
 21
-14.603000000000002
 31
0.0
  0
LINE
  5
1EC
330
17
100
AcDbEntity
  8
PATHS
  6
Continuous
 62
7
100
AcDbLine
 10
-72.27800000000002
 20
-14.602999999999998
 30
0.0
 11
-72.27800000000002
 21
14.601075329105544
 31
0.0
  0
LINE
  5
1ED
330
17
100
AcDbEntity
  8
PATHS
  6
Continuous
 62
7
100
AcDbLine
 10
-72.278
 20
14.602999999999998
 30
0.0
 11
-69.10300000000001
 21
14.602999999999998
 31
0.0
  0
LINE
  5
1EE
330
17
100
AcDbEntity
  8
PATHS
  6
Continuous
 62
7
100
AcDbLine
 10
-69.10300000000001
 20
14.602999999999998
 30
0.0
 11
-69.10300000000001
 21
21.396860619999995
 31
0.0
  0
LINE
  5
1EF
330
17
100
AcDbEntity
  8
PATHS
  6
Continuous
 62
7
100
AcDbLine
 10
-69.10300000000001
 20
21.396999999999995
 30
0.0
 11
-72.278
 21
21.397
 31
0.0
  0
LINE
  5
1F0
330
17
100
AcDbEntity
  8
PATHS
  6
Continuous
 62
7
100
AcDbLine
 10
-72.278
 20
21.39700000000001
 30
0.0
 11
-72.278
 21
26.601107068943993
 31
0.0
  0
LINE
  5
1F1
330
17
100
AcDbEntity
  8
PATHS
  6
Continuous
 62
7
100
AcDbLine
 10
-72.278
 20
26.603
 30
0.0
 11
-69.10300000000001
 21
26.602999999999998
 31
0.0
  0
LINE
  5
1F2
330
17
100
AcDbEntity
  8
PATHS
  6
Continuous
 62
7
100
AcDbLine
 10
-69.10300000000001
 20
26.602999999999998
 30
0.0
 11
-69.10300000000001
 21
33.39686062
 31
0.0
  0
LINE
  5
1F3
330
17
100
AcDbEntity
  8
PATHS
  6
Continuous
 62
7
100
AcDbLine
 10
-69.10300000000001
 20
33.397
 30
0.0
 11
-72.278
 21
33.397
 31
0.0
  0
LINE
  5
1F4
330
17
100
AcDbEntity
  8
PATHS
  6
Continuous
 62
7
100
AcDbLine
 10
-72.278
 20
33.396999999999984
 30
0.0
 11
-72.278
 21
41.222
 31
0.0
  0
ARC
  5
1F5
330
17
100
AcDbEntity
  8
PATHS
  6
Continuous
 62
7
100
AcDbCircle
 10
-73.278
 20
41.222
 30
0.0
 40
1.0
100
AcDbArc
 50
0.0
 51
90.0
  0
LINE
  5
1F6
330
17
100
AcDbEntity
  8
PATHS
  6
Continuous
 62
7
100
AcDbLine
 10
-73.278
 20
42.222
 30
0.0
 11
-81.1010435894258
 21
42.222
 31
0.0
  0
LINE
  5
1F7
330
17
100
AcDbEntity
  8
PATHS
  6
Continuous
 62
7
100
AcDbLine
 10
-81.10300000000001
 20
42.222
 30
0.0
 11
-81.10300000000001
 21
45.396860620000005
 31
0.0
  0
LINE
  5
1F8
330
17
100
AcDbEntity
  8
PATHS
  6
Continuous
 62
7
100
AcDbLine
 10
-81.10300000000001
 20
45.397000000000006
 30
0.0
 11
-87.897
 21
45.397000000000006
 31
0.0
  0
LINE
  5
1F9
330
17
100
AcDbEntity
  8
PATHS
  6
Continuous
 62
7
100
AcDbLine
 10
-87.897
 20
45.397000000000006
 30
0.0
 11
-87.897
 21
42.222
 31
0.0
  0
LINE
  5
1FA
330
17
100
AcDbEntity
  8
PATHS
  6
Continuous
 62
7
100
AcDbLine
 10
-87.897
 20
42.222
 30
0.0
 11
-93.10300000000005
 21
42.222
 31
0.0
  0
LINE
  5
1FB
330
17
100
AcDbEntity
  8
PATHS
  6
Continuous
 62
7
100
AcDbLine
 10
115.89700000000002
 20
42.222
 30
0.0
 11
115.89700000000002
 21
45.396860620000005
 31
0.0
  0
LINE
  5
1FC
330
17
100
AcDbEntity
  8
PATHS
  6
Continuous
 62
7
100
AcDbLine
 10
115.89700000000002
 20
45.397000000000006
 30
0.0
 11
109.10300000000002
 21
45.397000000000006
 31
0.0
  0
LINE
  5
1FD
330
17
100
AcDbEntity
  8
PATHS
  6
Continuous
 62
7
100
AcDbLine
 10
109.10300000000002
 20
45.397000000000006
 30
0.0
 11
109.10300000000002
 21
42.222
 31
0.0
  0
LINE
  5
1FE
330
17
100
AcDbEntity
  8
PATHS
  6
Continuous
 62
7
100
AcDbLine
 10
109.10300000000001
 20
42.222
 30
0.0
 11
99.89860726397455
 21
42.222
 31
0.0
  0
LINE
  5
1FF
330
17
100
AcDbEntity
  8
PATHS
  6
Continuous
 62
7
100
AcDbLine
 10
99.89700000000002
 20
42.222
 30
0.0
 11
99.89700000000002
 21
45.397000000000006
 31
0.0
  0
LINE
  5
200
330
17
100
AcDbEntity
  8
PATHS
  6
Continuous
 62
7
100
AcDbLine
 10
99.89700000000002
 20
45.397000000000006
 30
0.0
 11
93.10300000000002
 21
45.397000000000006
 31
0.0
  0
LINE
  5
201
330
17
100
AcDbEntity
  8
PATHS
  6
Continuous
 62
7
100
AcDbLine
 10
93.10300000000002
 20
45.397000000000006
 30
0.0
 11
93.10300000000001
 21
42.222
 31
0.0
  0
LINE
  5
202
330
17
100
AcDbEntity
  8
PATHS
  6
Continuous
 62
7
100
AcDbLine
 10
93.10300000000001
 20
42.22200000000001
 30
0.0
 11
87.8985755218522
 21
42.222
 31
0.0
  0
LINE
  5
203
330
17
100
AcDbEntity
  8
PATHS
  6
Continuous
 62
7
100
AcDbLine
 10
87.89700000000002
 20
42.222
 30
0.0
 11
87.89700000000002
 21
45.397000000000006
 31
0.0
  0
LINE
  5
204
330
17
100
AcDbEntity
  8
PATHS
  6
Continuous
 62
7
100
AcDbLine
 10
87.89700000000002
 20
45.397000000000006
 30
0.0
 11
81.10300000000002
 21
45.397000000000006
 31
0.0
  0
LINE
  5
205
330
17
100
AcDbEntity
  8
PATHS
  6
Continuous
 62
7
100
AcDbLine
 10
81.10300000000002
 20
45.397000000000006
 30
0.0
 11
81.10300000000002
 21
42.222
 31
0.0
  0
LINE
  5
206
330
17
100
AcDbEntity
  8
PATHS
  6
Continuous
 62
7
100
AcDbLine
 10
81.10300000000001
 20
42.222
 30
0.0
 11
73.27800000000002
 21
42.222
 31
0.0
  0
ARC
  5
207
330
17
100
AcDbEntity
  8
PATHS
  6
Continuous
 62
7
100
AcDbCircle
 10
73.27800000000002
 20
41.222
 30
0.0
 40
1.0
100
AcDbArc
 50
90.0
 51
180.0
  0
LINE
  5
208
330
17
100
AcDbEntity
  8
PATHS
  6
Continuous
 62
7
100
AcDbLine
 10
72.27800000000002
 20
41.222
 30
0.0
 11
72.27800000000002
 21
33.398512037828176
 31
0.0
  0
LINE
  5
209
330
17
100
AcDbEntity
  8
PATHS
  6
Continuous
 62
7
100
AcDbLine
 10
72.27800000000002
 20
33.397
 30
0.0
 11
69.10300000000001
 21
33.397
 31
0.0
  0
LINE
  5
20A
330
17
100
AcDbEntity
  8
PATHS
  6
Continuous
 62
7
100
AcDbLine
 10
69.10300000000001
 20
33.397
 30
0.0
 11
69.10300000000001
 21
26.603139380000005
 31
0.0
  0
LINE
  5
20B
330
17
100
AcDbEntity
  8
PATHS
  6
Continuous
 62
7
100
AcDbLine
 10
69.10300000000001
 20
26.603000000000005
 30
0.0
 11
72.27800000000002
 21
26.603
 31
0.0
  0
LINE
  5
20C
330
17
100
AcDbEntity
  8
PATHS
  6
Continuous
 62
7
100
AcDbLine
 10
72.27800000000002
 20
26.602999999999987
 30
0.0
 11
72.27800000000002
 21
21.398543779571085
 31
0.0
  0
LINE
  5
20D
330
17
100
AcDbEntity
  8
PATHS
  6
Continuous
 62
7
100
AcDbLine
 10
72.27800000000002
 20
21.397
 30
0.0
 11
69.10300000000001
 21
21.397000000000002
 31
0.0
  0
LINE
  5
20E
330
17
100
AcDbEntity
  8
PATHS
  6
Continuous
 62
7
100
AcDbLine
 10
69.10300000000001
 20
21.397000000000002
 30
0.0
 11
69.10300000000001
 21
14.603139380000002
 31
0.0
  0
LINE
  5
20F
330
17
100
AcDbEntity
  8
PATHS
  6
Continuous
 62
7
100
AcDbLine
 10
69.10300000000001
 20
14.603000000000002
 30
0.0
 11
72.27800000000002
 21
14.603000000000002
 31
0.0
  0
LINE
  5
210
330
17
100
AcDbEntity
  8
PATHS
  6
Continuous
 62
7
100
AcDbLine
 10
72.27800000000002
 20
14.603000000000005
 30
0.0
 11
72.27800000000002
 21
-14.601329253650595
 31
0.0
  0
LINE
  5
211
330
17
100
AcDbEntity
  8
PATHS
  6
Continuous
 62
7
100
AcDbLine
 10
72.278
 20
-14.602999999999998
 30
0.0
 11
69.10300000000001
 21
-14.602999999999998
 31
0.0
  0
LINE
  5
212
330
17
100
AcDbEntity
  8
PATHS
  6
Continuous
 62
7
100
AcDbLine
 10
69.10300000000001
 20
-14.602999999999998
 30
0.0
 11
69.10300000000001
 21
-21.396860619999995
 31
0.0
  0
LINE
  5
213
330
17
100
AcDbEntity
  8
PATHS
  6
Continuous
 62
7
100
AcDbLine
 10
69.10300000000001
 20
-21.396999999999995
 30
0.0
 11
72.278
 21
-21.397
 31
0.0
  0
LINE
  5
214
330
17
100
AcDbEntity
  8
PATHS
  6
Continuous
 62
7
100
AcDbLine
 10
72.278
 20
-21.397
 30
0.0
 11
72.278
 21
-26.6013609947587
 31
0.0
  0
LINE
  5
215
330
17
100
AcDbEntity
  8
PATHS
  6
Continuous
 62
7
100
AcDbLine
 10
72.278
 20
-26.603
 30
0.0
 11
69.10300000000001
 21
-26.602999999999998
 31
0.0
  0
LINE
  5
216
330
17
100
AcDbEntity
  8
PATHS
  6
Continuous
 62
7
100
AcDbLine
 10
69.10300000000001
 20
-26.602999999999998
 30
0.0
 11
69.10300000000001
 21
-33.39686062
 31
0.0
  0
LINE
  5
217
330
17
100
AcDbEntity
  8
PATHS
  6
Continuous
 62
7
100
AcDbLine
 10
69.10300000000001
 20
-33.397
 30
0.0
 11
72.278
 21
-33.397
 31
0.0
  0
LINE
  5
218
330
17
100
AcDbEntity
  8
PATHS
  6
Continuous
 62
7
100
AcDbLine
 10
72.278
 20
-33.39700000000002
 30
0.0
 11
72.278
 21
-41.222
 31
0.0
  0
ARC
  5
219
330
17
100
AcDbEntity
  8
PATHS
  6
Continuous
 62
7
100
AcDbCircle
 10
73.278
 20
-41.222
 30
0.0
 40
1.0
100
AcDbArc
 50
180.0
 51
269.91518529097715
  0
LINE
  5
21A
330
17
100
AcDbEntity
  8
PATHS
  6
Continuous
 62
7
100
AcDbLine
 10
73.278
 20
-42.222
 30
0.0
 11
81.10129751270118
 21
-42.22200000000001
 31
0.0
  0
LINE
  5
21B
330
17
100
AcDbEntity
  8
PATHS
  6
Continuous
 62
7
100
AcDbLine
 10
81.10300000000001
 20
-42.222
 30
0.0
 11
81.10300000000001
 21
-45.396860620000005
 31
0.0
  0
LINE
  5
21C
330
17
100
AcDbEntity
  8
PATHS
  6
Continuous
 62
7
100
AcDbLine
 10
81.10300000000001
 20
-45.397000000000006
 30
0.0
 11
87.897
 21
-45.397000000000006
 31
0.0
  0
LINE
  5
21D
330
17
100
AcDbEntity
  8
PATHS
  6
Continuous
 62
7
100
AcDbLine
 10
87.897
 20
-45.397000000000006
 30
0.0
 11
87.897
 21
-42.222
 31
0.0
  0
LINE
  5
21E
330
17
100
AcDbEntity
  8
PATHS
  6
Continuous
 62
7
100
AcDbLine
 10
87.89700000000002
 20
-42.222
 30
0.0
 11
93.10126577191056
 21
-42.22200000000001
 31
0.0
  0
LINE
  5
21F
330
17
100
AcDbEntity
  8
PATHS
  6
Continuous
 62
7
100
AcDbLine
 10
93.10300000000001
 20
-42.222
 30
0.0
 11
93.10300000000001
 21
-45.396860620000005
 31
0.0
  0
LINE
  5
220
330
17
100
AcDbEntity
  8
PATHS
  6
Continuous
 62
7
100
AcDbLine
 10
93.10300000000001
 20
-45.397000000000006
 30
0.0
 11
99.897
 21
-45.397000000000006
 31
0.0
  0
LINE
  5
221
330
17
100
AcDbEntity
  8
PATHS
  6
Continuous
 62
7
100
AcDbLine
 10
99.897
 20
-45.397000000000006
 30
0.0
 11
99.897
 21
-42.222
 31
0.0
  0
LINE
  5
222
330
17
100
AcDbEntity
  8
PATHS
  6
Continuous
 62
7
100
AcDbLine
 10
99.897
 20
-42.222
 30
0.0
 11
109.10113880894116
 21
-42.222
 31
0.0
  0
LINE
  5
223
330
17
100
AcDbEntity
  8
PATHS
  6
Continuous
 62
7
100
AcDbLine
 10
109.10300000000001
 20
-42.222
 30
0.0
 11
109.10300000000001
 21
-45.397000000000006
 31
0.0
  0
LINE
  5
224
330
17
100
AcDbEntity
  8
PATHS
  6
Continuous
 62
7
100
AcDbLine
 10
109.10300000000001
 20
-45.397000000000006
 30
0.0
 11
115.897
 21
-45.397000000000006
 31
0.0
  0
LINE
  5
225
330
17
100
AcDbEntity
  8
PATHS
  6
Continuous
 62
7
100
AcDbLine
 10
115.897
 20
-45.397000000000006
 30
0.0
 11
115.89700000000002
 21
-42.222
 31
0.0
  0
LINE
  5
226
330
17
100
AcDbEntity
  8
PATHS
  6
Continuous
 62
7
100
AcDbLine
 10
115.89700000000002
 20
-42.222
 30
0.0
 11
121.10117054979386
 21
-42.222
 31
0.0
  0
LINE
  5
227
330
17
100
AcDbEntity
  8
PATHS
  6
Continuous
 62
7
100
AcDbLine
 10
121.10300000000001
 20
-42.222
 30
0.0
 11
121.10300000000001
 21
-45.397000000000006
 31
0.0
  0
LINE
  5
228
330
17
100
AcDbEntity
  8
PATHS
  6
Continuous
 62
7
100
AcDbLine
 10
121.10300000000001
 20
-45.397000000000006
 30
0.0
 11
127.897
 21
-45.397000000000006
 31
0.0
  0
LINE
  5
229
330
17
100
AcDbEntity
  8
PATHS
  6
Continuous
 62
7
100
AcDbLine
 10
127.897
 20
-45.397000000000006
 30
0.0
 11
127.897
 21
-42.222
 31
0.0
  0
LINE
  5
22A
330
17
100
AcDbEntity
  8
PATHS
  6
Continuous
 62
7
100
AcDbLine
 10
127.89700000000002
 20
-42.222
 30
0.0
 11
135.722
 21
-42.222
 31
0.0
  0
ARC
  5
22B
330
17
100
AcDbEntity
  8
PATHS
  6
Continuous
 62
7
100
AcDbCircle
 10
135.722
 20
-41.222
 30
0.0
 40
1.0
100
AcDbArc
 50
270.0
 51
0.0
  0
LINE
  5
22C
330
17
100
AcDbEntity
  8
PATHS
  6
Continuous
 62
7
100
AcDbLine
 10
136.722
 20
-41.222
 30
0.0
 11
136.722
 21
-33.39876596872143
 31
0.0
  0
LINE
  5
22D
330
17
100
AcDbEntity
  8
PATHS
  6
Continuous
 62
7
100
AcDbLine
 10
136.722
 20
-33.397
 30
0.0
 11
139.89700000000002
 21
-33.397
 31
0.0
  0
LINE
  5
22E
330
17
100
AcDbEntity
  8
PATHS
  6
Continuous
 62
7
100
AcDbLine
 10
139.89700000000002
 20
-33.397
 30
0.0
 11
139.89700000000002
 21
-26.603139380000005
 31
0.0
  0
LINE
  5
22F
330
17
100
AcDbEntity
  8
PATHS
  6
Continuous
 62
7
100
AcDbLine
 10
139.89700000000002
 20
-26.603000000000005
 30
0.0
 11
136.722
 21
-26.603
 31
0.0
  0
LINE
  5
230
330
17
100
AcDbEntity
  8
PATHS
  6
Continuous
 62
7
100
AcDbLine
 10
136.722
 20
-26.603000000000016
 30
0.0
 11
136.722
 21
-21.398797709194668
 31
0.0
  0
LINE
  5
231
330
17
100
AcDbEntity
  8
PATHS
  6
Continuous
 62
7
100
AcDbLine
 10
136.722
 20
-21.397
 30
0.0
 11
139.89700000000002
 21
-21.397000000000002
 31
0.0
  0
LINE
  5
232
330
17
100
AcDbEntity
  8
PATHS
  6
Continuous
 62
7
100
AcDbLine
 10
139.89700000000002
 20
-21.397000000000002
 30
0.0
 11
139.89700000000002
 21
-14.603139380000002
 31
0.0
  0
LINE
  5
233
330
17
100
AcDbEntity
  8
PATHS
  6
Continuous
 62
7
100
AcDbLine
 10
139.89700000000002
 20
-14.603000000000002
 30
0.0
 11
136.722
 21
-14.603000000000002
 31
0.0
  0
LINE
  5
234
330
17
100
AcDbEntity
  8
PATHS
  6
Continuous
 62
7
100
AcDbLine
 10
136.722
 20
-14.602999999999998
 30
0.0
 11
136.722
 21
14.601075329105544
 31
0.0
  0
LINE
  5
235
330
17
100
AcDbEntity
  8
PATHS
  6
Continuous
 62
7
100
AcDbLine
 10
136.72200000000004
 20
14.602999999999998
 30
0.0
 11
139.89700000000002
 21
14.602999999999998
 31
0.0
  0
LINE
  5
236
330
17
100
AcDbEntity
  8
PATHS
  6
Continuous
 62
7
100
AcDbLine
 10
139.89700000000002
 20
14.602999999999998
 30
0.0
 11
139.89700000000002
 21
21.396860619999995
 31
0.0
  0
LINE
  5
237
330
17
100
AcDbEntity
  8
PATHS
  6
Continuous
 62
7
100
AcDbLine
 10
139.89700000000002
 20
21.396999999999995
 30
0.0
 11
136.72200000000004
 21
21.397
 31
0.0
  0
LINE
  5
238
330
17
100
AcDbEntity
  8
PATHS
  6
Continuous
 62
7
100
AcDbLine
 10
136.72200000000004
 20
21.39700000000001
 30
0.0
 11
136.72200000000004
 21
26.601107068943993
 31
0.0
  0
LINE
  5
239
330
17
100
AcDbEntity
  8
PATHS
  6
Continuous
 62
7
100
AcDbLine
 10
136.72200000000004
 20
26.603
 30
0.0
 11
139.89700000000002
 21
26.602999999999998
 31
0.0
  0
LINE
  5
23A
330
17
100
AcDbEntity
  8
PATHS
  6
Continuous
 62
7
100
AcDbLine
 10
139.89700000000002
 20
26.602999999999998
 30
0.0
 11
139.89700000000002
 21
33.39686062
 31
0.0
  0
LINE
  5
23B
330
17
100
AcDbEntity
  8
PATHS
  6
Continuous
 62
7
100
AcDbLine
 10
139.89700000000002
 20
33.397
 30
0.0
 11
136.72200000000004
 21
33.397
 31
0.0
  0
LINE
  5
23C
330
17
100
AcDbEntity
  8
PATHS
  6
Continuous
 62
7
100
AcDbLine
 10
136.72200000000004
 20
33.396999999999984
 30
0.0
 11
136.72200000000004
 21
41.222
 31
0.0
  0
ARC
  5
23D
330
17
100
AcDbEntity
  8
PATHS
  6
Continuous
 62
7
100
AcDbCircle
 10
135.722
 20
41.222
 30
0.0
 40
1.0
100
AcDbArc
 50
0.0
 51
90.0
  0
LINE
  5
23E
330
17
100
AcDbEntity
  8
PATHS
  6
Continuous
 62
7
100
AcDbLine
 10
135.722
 20
42.222
 30
0.0
 11
127.89895641057423
 21
42.222
 31
0.0
  0
LINE
  5
23F
330
17
100
AcDbEntity
  8
PATHS
  6
Continuous
 62
7
100
AcDbLine
 10
127.89700000000002
 20
42.222
 30
0.0
 11
127.89700000000002
 21
45.396860620000005
 31
0.0
  0
LINE
  5
240
330
17
100
AcDbEntity
  8
PATHS
  6
Continuous
 62
7
100
AcDbLine
 10
127.89700000000002
 20
45.397000000000006
 30
0.0
 11
121.10300000000002
 21
45.397000000000006
 31
0.0
  0
LINE
  5
241
330
17
100
AcDbEntity
  8
PATHS
  6
Continuous
 62
7
100
AcDbLine
 10
121.10300000000002
 20
45.397000000000006
 30
0.0
 11
121.10300000000002
 21
42.222
 31
0.0
  0
LINE
  5
242
330
17
100
AcDbEntity
  8
PATHS
  6
Continuous
 62
7
100
AcDbLine
 10
121.10300000000002
 20
42.222
 30
0.0
 11
115.89699999999998
 21
42.222
 31
0.0
  0
TEXT
  5
243
330
17
100
AcDbEntity
  8
DOCUMENTATION
 62
2
100
AcDbText
 10
-104.50000000000001
 20
0.0
 30
0.0
 40
6.0
  1
left
 72
1
 11
-104.50000000000001
 21
0.0
 31
0.0
100
AcDbText
  0
TEXT
  5
244
330
17
100
AcDbEntity
  8
DOCUMENTATION
 62
2
100
AcDbText
 10
104.50000000000001
 20
0.0
 30
0.0
 40
6.0
  1
right
 72
1
 11
104.50000000000001
 21
0.0
 31
0.0
100
AcDbText
  0
ENDSEC
  0
SECTION
  2
OBJECTS
  0
DICTIONARY
  5
A
330
0
100
AcDbDictionary
281
1
  3
ACAD_COLOR
350
B
  3
ACAD_GROUP
350
C
  3
ACAD_LAYOUT
350
D
  3
ACAD_MATERIAL
350
E
  3
ACAD_MLEADERSTYLE
350
F
  3
ACAD_MLINESTYLE
350
10
  3
ACAD_PLOTSETTINGS
350
11
  3
ACAD_PLOTSTYLENAME
350
12
  3
ACAD_SCALELIST
350
14
  3
ACAD_TABLESTYLE
350
15
  3
ACAD_VISUALSTYLE
350
16
  0
DICTIONARY
  5
B
330
A
100
AcDbDictionary
281
1
  0
DICTIONARY
  5
C
330
A
100
AcDbDictionary
281
1
  0
DICTIONARY
  5
D
330
A
100
AcDbDictionary
281
1
  3
Model
350
1A
  3
Layout1
350
1E
  0
DICTIONARY
  5
E
330
A
100
AcDbDictionary
281
1
  3
ByBlock
350
1F
  3
ByLayer
350
20
  3
Global
350
21
  0
DICTIONARY
  5
F
330
A
100
AcDbDictionary
281
1
  3
Standard
350
2C
  0
DICTIONARY
  5
10
330
A
100
AcDbDictionary
281
1
  3
Standard
350
22
  0
DICTIONARY
  5
11
330
A
100
AcDbDictionary
281
1
  0
ACDBDICTIONARYWDFLT
  5
12
330
A
100
AcDbDictionary
281
1
  3
Normal
350
13
100
AcDbDictionaryWithDefault
340
13
  0
ACDBPLACEHOLDER
  5
13
330
12
  0
DICTIONARY
  5
14
330
A
100
AcDbDictionary
281
1
  0
DICTIONARY
  5
15
330
A
100
AcDbDictionary
281
1
  0
DICTIONARY
  5
16
330
A
100
AcDbDictionary
281
1
  3
2dWireframe
350
58
  3
Basic
350
59
  3
Brighten
350
5A
  3
ColorChange
350
5B
  3
Conceptual
350
5C
  3
Dim
350
5D
  3
EdgeColorOff
350
5E
  3
Facepattern
350
5F
  3
Flat
350
60
  3
FlatWithEdges
350
61
  3
Gouraud
350
62
  3
GouraudWithEdges
350
63
  3
Hidden
350
64
  3
JitterOff
350
65
  3
Linepattern
350
66
  3
Modeling
350
67
  3
OverhangOff
350
68
  3
Realistic
350
69
  3
Shaded
350
6A
  3
Shaded with edges
350
6B
  3
Shades of Gray
350
6C
  3
Sketchy
350
6D
  3
Thicken
350
6E
  3
Wireframe
350
6F
  3
X-Ray
350
70
  0
LAYOUT
  5
1A
330
D
100
AcDbPlotSettings
  1

  2
Adobe PDF
  4
A4
  6

 40
3.175
 41
3.175
 42
3.175
 43
3.175
 44
209.91
 45
297.03
 46
0.0
 47
0.0
 48
0.0
 49
0.0
140
0.0
141
0.0
142
1.0
143
1.0
 70
1024
 72
0
 73
1
 74
5
  7

 75
16
 76
0
 77
2
 78
300
147
1.0
148
0.0
149
0.0
100
AcDbLayout
  1
Model
 70
1
 71
0
 10
-3.175
 20
-3.175
 11
293.857
 21
206.735
 12
0.0
 22
0.0
 32
0.0
 14
29.068
 24
20.356
 34
0.0
 15
261.614
 25
183.204
 35
0.0
146
0.0
 13
0.0
 23
0.0
 33
0.0
 16
1.0
 26
0.0
 36
0.0
 17
0.0
 27
1.0
 37
0.0
 76
1
330
17
  0
LAYOUT
  5
1E
330
D
100
AcDbPlotSettings
  1

  2
Adobe PDF
  4
A4
  6

 40
3.175
 41
3.175
 42
3.175
 43
3.175
 44
209.91
 45
297.03
 46
0.0
 47
0.0
 48
0.0
 49
0.0
140
0.0
141
0.0
142
1.0
143
1.0
 70
0
 72
0
 73
1
 74
5
  7

 75
16
 76
0
 77
2
 78
300
147
1.0
148
0.0
149
0.0
100
AcDbLayout
  1
Layout1
 70
1
 71
1
 10
-3.175
 20
-3.175
 11
293.857
 21
206.735
 12
0.0
 22
0.0
 32
0.0
 14
29.068
 24
20.356
 34
0.0
 15
261.614
 25
183.204
 35
0.0
146
0.0
 13
0.0
 23
0.0
 33
0.0
 16
1.0
 26
0.0
 36
0.0
 17
0.0
 27
1.0
 37
0.0
 76
1
330
1B
  0
MATERIAL
  5
1F
102
{ACAD_REACTORS
330
E
102
}
330
E
100
AcDbMaterial
  1
ByBlock
  2

 70
0
 40
1.0
 71
1
 41
1.0
 91
-1023410177
 42
1.0
 72
1
  3

 73
1
 74
1
 75
1
 44
0.5
 73
0
 45
1.0
 46
1.0
 77
1
  4

 78
1
 79
1
170
1
 48
1.0
171
1
  6

172
1
173
1
174
1
140
1.0
141
1.0
175
1
  7

176
1
177
1
178
1
143
1.0
179
1
  8

270
1
271
1
272
1
145
1.0
146
1.0
273
1
  9

274
1
275
1
276
1
 42
1.0
 72
1
  3

 73
1
 74
1
 75
1
 94
63
  0
MATERIAL
  5
20
102
{ACAD_REACTORS
330
E
102
}
330
E
100
AcDbMaterial
  1
ByLayer
  2

 70
0
 40
1.0
 71
1
 41
1.0
 91
-1023410177
 42
1.0
 72
1
  3

 73
1
 74
1
 75
1
 44
0.5
 73
0
 45
1.0
 46
1.0
 77
1
  4

 78
1
 79
1
170
1
 48
1.0
171
1
  6

172
1
173
1
174
1
140
1.0
141
1.0
175
1
  7

176
1
177
1
178
1
143
1.0
179
1
  8

270
1
271
1
272
1
145
1.0
146
1.0
273
1
  9

274
1
275
1
276
1
 42
1.0
 72
1
  3

 73
1
 74
1
 75
1
 94
63
  0
MATERIAL
  5
21
102
{ACAD_REACTORS
330
E
102
}
330
E
100
AcDbMaterial
  1
Global
  2

 70
0
 40
1.0
 71
1
 41
1.0
 91
-1023410177
 42
1.0
 72
1
  3

 73
1
 74
1
 75
1
 44
0.5
 73
0
 45
1.0
 46
1.0
 77
1
  4

 78
1
 79
1
170
1
 48
1.0
171
1
  6

172
1
173
1
174
1
140
1.0
141
1.0
175
1
  7

176
1
177
1
178
1
143
1.0
179
1
  8

270
1
271
1
272
1
145
1.0
146
1.0
273
1
  9

274
1
275
1
276
1
 42
1.0
 72
1
  3

 73
1
 74
1
 75
1
 94
63
  0
MLINESTYLE
  5
22
102
{ACAD_REACTORS
330
10
102
}
330
10
100
AcDbMlineStyle
  2
Standard
 70
0
  3

 62
256
 51
90.0
 52
90.0
 71
2
 49
0.5
 62
256
  6
BYLAYER
 49
-0.5
 62
256
  6
BYLAYER
  0
MLEADERSTYLE
  5
2C
102
{ACAD_REACTORS
330
F
102
}
330
F
100
AcDbMLeaderStyle
179
2
170
2
171
1
172
0
 90
2
 40
0.0
 41
0.0
173
1
 91
-1056964608
 92
-2
290
1
 42
2.0
291
1
 43
8.0
  3
Standard
 44
4.0
300

342
29
174
1
175
1
176
0
178
1
 93
-1056964608
 45
4.0
292
0
297
0
 46
4.0
 94
-1056964608
 47
1.0
 49
0.0
140
1.0
294
1
141
0.0
177
0
142
1.0
295
0
296
0
143
3.75
271
0
272
9
272
9
  0
VISUALSTYLE
  5
58
102
{ACAD_REACTORS
330
16
102
}
330
16
100
AcDbVisualStyle
  2
2dWireframe
 70
4
 90
0
 40
0.6
 62
7
290
0
291
0
  0
VISUALSTYLE
  5
59
102
{ACAD_REACTORS
330
16
102
}
330
16
100
AcDbVisualStyle
  2
Basic
 70
7
 90
1
 40
0.6
 62
7
290
0
291
1
  0
VISUALSTYLE
  5
5A
102
{ACAD_REACTORS
330
16
102
}
330
16
100
AcDbVisualStyle
  2
Brighten
 70
12
 90
2
 40
0.6
 62
7
290
0
291
1
  0
VISUALSTYLE
  5
5B
102
{ACAD_REACTORS
330
16
102
}
330
16
100
AcDbVisualStyle
  2
ColorChange
 70
16
 90
2
 40
0.6
 62
8
290
0
291
1
  0
VISUALSTYLE
  5
5C
102
{ACAD_REACTORS
330
16
102
}
330
16
100
AcDbVisualStyle
  2
Conceptual
 70
9
 90
3
 40
0.6
 62
7
290
0
291
0
  0
VISUALSTYLE
  5
5D
102
{ACAD_REACTORS
330
16
102
}
330
16
100
AcDbVisualStyle
  2
Dim
 70
11
 90
2
 40
0.6
 62
7
290
0
291
1
  0
VISUALSTYLE
  5
5E
102
{ACAD_REACTORS
330
16
102
}
330
16
100
AcDbVisualStyle
  2
EdgeColorOff
 70
22
 90
2
 40
0.6
 62
7
290
0
291
1
  0
VISUALSTYLE
  5
5F
102
{ACAD_REACTORS
330
16
102
}
330
16
100
AcDbVisualStyle
  2
Facepattern
 70
15
 90
2
 40
0.6
 62
7
290
0
291
1
  0
VISUALSTYLE
  5
60
102
{ACAD_REACTORS
330
16
102
}
330
16
100
AcDbVisualStyle
  2
Flat
 70
0
 90
2
 40
0.6
 62
7
290
0
291
1
  0
VISUALSTYLE
  5
61
102
{ACAD_REACTORS
330
16
102
}
330
16
100
AcDbVisualStyle
  2
FlatWithEdges
 70
1
 90
2
 40
0.6
 62
7
290
0
291
1
  0
VISUALSTYLE
  5
62
102
{ACAD_REACTORS
330
16
102
}
330
16
100
AcDbVisualStyle
  2
Gouraud
 70
2
 90
2
 40
0.6
 62
7
290
0
291
1
  0
VISUALSTYLE
  5
63
102
{ACAD_REACTORS
330
16
102
}
330
16
100
AcDbVisualStyle
  2
GouraudWithEdges
 70
3
 90
2
 40
0.6
 62
7
290
0
291
1
  0
VISUALSTYLE
  5
64
102
{ACAD_REACTORS
330
16
102
}
330
16
100
AcDbVisualStyle
  2
Hidden
 70
6
 90
1
 40
0.6
 62
7
290
0
291
0
  0
VISUALSTYLE
  5
65
102
{ACAD_REACTORS
330
16
102
}
330
16
100
AcDbVisualStyle
  2
JitterOff
 70
20
 90
2
 40
0.6
 62
7
290
0
291
1
  0
VISUALSTYLE
  5
66
102
{ACAD_REACTORS
330
16
102
}
330
16
100
AcDbVisualStyle
  2
Linepattern
 70
14
 90
2
 40
0.6
 62
7
290
0
291
1
  0
VISUALSTYLE
  5
67
102
{ACAD_REACTORS
330
16
102
}
330
16
100
AcDbVisualStyle
  2
Modeling
 70
10
 90
2
 40
0.6
 62
7
290
0
291
0
  0
VISUALSTYLE
  5
68
102
{ACAD_REACTORS
330
16
102
}
330
16
100
AcDbVisualStyle
  2
OverhangOff
 70
21
 90
2
 40
0.6
 62
7
290
0
291
1
  0
VISUALSTYLE
  5
69
102
{ACAD_REACTORS
330
16
102
}
330
16
100
AcDbVisualStyle
  2
Realistic
 70
8
 90
2
 40
0.6
 62
7
290
0
291
0
  0
VISUALSTYLE
  5
6A
102
{ACAD_REACTORS
330
16
102
}
330
16
100
AcDbVisualStyle
  2
Shaded
 70
27
 90
2
 40
0.6
 62
7
290
0
291
0
  0
VISUALSTYLE
  5
6B
102
{ACAD_REACTORS
330
16
102
}
330
16
100
AcDbVisualStyle
  2
Shaded with edges
 70
26
 90
2
 40
0.6
 62
7
290
0
291
0
  0
VISUALSTYLE
  5
6C
102
{ACAD_REACTORS
330
16
102
}
330
16
100
AcDbVisualStyle
  2
Shades of Gray
 70
23
 90
2
 40
0.6
 62
7
290
0
291
0
  0
VISUALSTYLE
  5
6D
102
{ACAD_REACTORS
330
16
102
}
330
16
100
AcDbVisualStyle
  2
Sketchy
 70
24
 90
1
 40
0.6
 62
7
290
0
291
0
  0
VISUALSTYLE
  5
6E
102
{ACAD_REACTORS
330
16
102
}
330
16
100
AcDbVisualStyle
  2
Thicken
 70
13
 90
2
 40
0.6
 62
7
290
0
291
1
  0
VISUALSTYLE
  5
6F
102
{ACAD_REACTORS
330
16
102
}
330
16
100
AcDbVisualStyle
  2
Wireframe
 70
5
 90
0
 40
0.6
 62
7
290
0
291
0
  0
VISUALSTYLE
  5
70
102
{ACAD_REACTORS
330
16
102
}
330
16
100
AcDbVisualStyle
  2
X-Ray
 70
25
 90
2
 40
0.5
 62
7
290
0
291
0
  0
ENDSEC
  0
EOF
